<svg width="112" height="112" viewBox="0 0 112 112" fill="none" xmlns="http://www.w3.org/2000/svg">
<g clip-path="url(#clip0_378_717)">
<rect width="112" height="112" fill="white"/>
<path d="M113 0H0V113H113V0Z" fill="#C32D2F"/>
<path fill-rule="evenodd" clip-rule="evenodd" d="M14.125 0H0V98.875V105.938H7.0625V98.875H14.125V0Z" fill="#E55555"/>
<path fill-rule="evenodd" clip-rule="evenodd" d="M7.0625 98H14.125H113V112.125H14.125H0V105.062H7.0625V98Z" fill="#860000"/>
<path fill-rule="evenodd" clip-rule="evenodd" d="M112.125 7V14.0625V112.938H98V14.0625H105.062V7H112.125Z" fill="#580404"/>
<path d="M105.062 105H98V112.062H105.062V105Z" fill="#860000"/>
<path fill-rule="evenodd" clip-rule="evenodd" d="M0 0H7.0625H105.938H112V7.0625H105V14.125H7.0625V7.0625H0V0Z" fill="#FF8787"/>
<path d="M44.4401 51.0714H49.2616V55.8929H44.4401V51.0714ZM39.6187 55.8929H44.4401V60.7143H39.6187V55.8929ZM34.7973 55.8929H39.6187V60.7143H34.7973V55.8929ZM29.9759 55.8929H34.7973V60.7143H29.9759V55.8929ZM29.9759 51.0714H34.7973V55.8929H29.9759V51.0714ZM25.1544 51.0714H29.9759V55.8929H25.1544V51.0714ZM20.333 51.0714H25.1544V55.8929H20.333V51.0714ZM20.333 55.8929H25.1544V60.7143H20.333V55.8929ZM25.1544 55.8929H29.9759V60.7143H25.1544V55.8929ZM44.4401 55.8929H49.2616V60.7143H44.4401V55.8929ZM39.6187 51.0714H44.4401V55.8929H39.6187V51.0714ZM34.7973 51.0714H39.6187V55.8929H34.7973V51.0714ZM29.9759 60.7143H34.7973V65.5357H29.9759V60.7143ZM29.9759 65.5357H34.7973V70.3571H29.9759V65.5357ZM34.7973 65.5357H39.6187V70.3571H34.7973V65.5357ZM34.7973 60.7143H39.6187V65.5357H34.7973V60.7143ZM34.7973 41.4286H39.6187V46.25H34.7973V41.4286ZM29.9759 41.4286H34.7973V46.25H29.9759V41.4286ZM34.7973 46.25H39.6187V51.0714H34.7973V46.25ZM29.9759 46.25H34.7973V51.0714H29.9759V46.25ZM54.083 36.6071H58.9044V41.4286H54.083V36.6071ZM54.083 41.4286H58.9044V46.25H54.083V41.4286ZM58.9044 41.4286H63.7259V46.25H58.9044V41.4286ZM58.9044 36.6071H63.7259V41.4286H58.9044V36.6071ZM58.9044 31.7857H63.7259V36.6071H58.9044V31.7857ZM63.7259 31.7857H68.5473V36.6071H63.7259V31.7857ZM68.5473 31.7857H73.3687V36.6071H68.5473V31.7857ZM73.3687 31.7857H78.1901V36.6071H73.3687V31.7857ZM78.1901 31.7857H83.0116V36.6071H78.1901V31.7857ZM78.1901 36.6071H83.0116V41.4286H78.1901V36.6071ZM73.3687 36.6071H78.1901V41.4286H73.3687V36.6071ZM68.5473 36.6071H73.3687V41.4286H68.5473V36.6071ZM63.7259 36.6071H68.5473V41.4286H63.7259V36.6071ZM78.1901 41.4286H83.0116V46.25H78.1901V41.4286ZM83.0116 41.4286H87.833V46.25H83.0116V41.4286ZM83.0116 36.6071H87.833V41.4286H83.0116V36.6071ZM83.0116 46.25H87.833V51.0714H83.0116V46.25ZM78.1901 46.25H83.0116V51.0714H78.1901V46.25ZM73.3687 46.25H78.1901V51.0714H73.3687V46.25ZM73.3687 51.0714H78.1901V55.8929H73.3687V51.0714ZM78.1901 51.0714H83.0116V55.8929H78.1901V51.0714ZM68.5473 51.0714H73.3687V55.8929H68.5473V51.0714ZM68.5473 55.8929H73.3687V60.7143H68.5473V55.8929ZM73.3687 55.8929H78.1901V60.7143H73.3687V55.8929ZM63.7259 55.8929H68.5473V60.7143H63.7259V55.8929ZM63.7259 60.7143H68.5473V65.5357H63.7259V60.7143ZM68.5473 60.7143H73.3687V65.5357H68.5473V60.7143ZM58.9044 60.7143H63.7259V65.5357H58.9044V60.7143ZM58.9044 65.5357H63.7259V70.3571H58.9044V65.5357ZM63.7259 65.5357H68.5473V70.3571H63.7259V65.5357ZM54.083 65.5357H58.9044V70.3571H54.083V65.5357ZM54.083 70.3571H58.9044V75.1786H54.083V70.3571ZM54.083 75.1786H58.9044V80H54.083V75.1786ZM58.9044 75.1786H63.7259V80H58.9044V75.1786ZM58.9044 70.3571H63.7259V75.1786H58.9044V70.3571ZM63.7259 70.3571H68.5473V75.1786H63.7259V70.3571ZM68.5473 70.3571H73.3687V75.1786H68.5473V70.3571ZM68.5473 75.1786H73.3687V80H68.5473V75.1786ZM73.3687 75.1786H78.1901V80H73.3687V75.1786ZM78.1901 75.1786H83.0116V80H78.1901V75.1786ZM83.0116 75.1786H87.833V80H83.0116V75.1786ZM83.0116 70.3571H87.833V75.1786H83.0116V70.3571ZM78.1901 70.3571H83.0116V75.1786H78.1901V70.3571ZM73.3687 70.3571H78.1901V75.1786H73.3687V70.3571ZM63.7259 75.1786H68.5473V80H63.7259V75.1786Z" fill="#FF8787"/>
</g>
<defs>
<clipPath id="clip0_378_717">
<rect width="112" height="112" fill="white"/>
</clipPath>
</defs>
</svg>
