<svg width="220" height="120" viewBox="0 0 220 120" fill="none" xmlns="http://www.w3.org/2000/svg">
<mask id="path-1-outside-1_454_656" maskUnits="userSpaceOnUse" x="0" y="0" width="220" height="121" fill="black">
<rect fill="white" width="220" height="121"/>
<path d="M10 87H21V99H10V87Z"/>
<path d="M10 77H21V87H10V77Z"/>
<path d="M10 66H21V77H10V66Z"/>
<path d="M10 54H21V66H10V54Z"/>
<path d="M10 43H21V54H10V43Z"/>
<path d="M10 33H21V43H10V33Z"/>
<path d="M10 21H21V33H10V21Z"/>
<path d="M21 21H199V99H21V21Z"/>
<path d="M199 87H210V99H199V87Z"/>
<path d="M199 77H210V87H199V77Z"/>
<path d="M199 66H210V77H199V66Z"/>
<path d="M199 54H210V66H199V54Z"/>
<path d="M199 43H210V54H199V43Z"/>
<path d="M199 33H210V43H199V33Z"/>
<path d="M199 21H210V33H199V21Z"/>
<path d="M188 10H199V21H188V10Z"/>
<path d="M110 21.0005V10.0005L121 10.0005V21.0005H110Z"/>
<path d="M98 21.0002V10.0002L110 10.0005V21.0005L98 21.0002Z"/>
<path d="M88.001 21.0002V10.0002H98V21.0002H88.001Z"/>
<path d="M77 21.0002V10.0002H88.001V21.0002H77Z"/>
<path d="M65 21.0002V10.0002H77V21.0002H65Z"/>
<path d="M54 21.0002V10.0002H65V21.0002H54Z"/>
<path d="M177 21.0002V10.0002L188 10V21L177 21.0002Z"/>
<path d="M165 21V10L177 10.0002V21.0002L165 21Z"/>
<path d="M155.001 21V10H165V21H155.001Z"/>
<path d="M144 21V10H155.001V21H144Z"/>
<path d="M132 21V10H144V21H132Z"/>
<path d="M121 21.0005V10.0005L132 10V21L121 21.0005Z"/>
<path d="M44 21.0005V10.0005L54 10.0002V21.0002L44 21.0005Z"/>
<path d="M32 21V10L44 10.0005V21.0005L32 21Z"/>
<path d="M21 21V10.0002L32 10V21H21Z"/>
<path d="M188 99H199V110H188V99Z"/>
<path d="M110 110V99.0005H121V110H110Z"/>
<path d="M98 110V99.0002L110 99.0005V110L98 110Z"/>
<path d="M88.001 110V99.0002H98V110H88.001Z"/>
<path d="M77 110V99.0002H88.001V110H77Z"/>
<path d="M65 110V99.0002H77V110H65Z"/>
<path d="M54 110V99.0002H65V110H54Z"/>
<path d="M177 110V99.0002L188 99V110L177 110Z"/>
<path d="M165 110V99L177 99.0002V110L165 110Z"/>
<path d="M155.001 110V99H165V110H155.001Z"/>
<path d="M144 110V99H155.001V110H144Z"/>
<path d="M132 110V99H144V110H132Z"/>
<path d="M121 110V99.0005L132 99V110L121 110Z"/>
<path d="M44 110V99.0005L54 99.0002V110L44 110Z"/>
<path d="M32 110V99L44 99.0005V110L32 110Z"/>
<path d="M21 110V99H32V110L21 110Z"/>
<path d="M35.249 36.7857H40.0705V41.6071H35.249V36.7857ZM40.0705 36.7857H44.8919V41.6071H40.0705V36.7857ZM44.8919 36.7857H49.7133V41.6071H44.8919V36.7857ZM49.7133 36.7857H54.5347V41.6071H49.7133V36.7857ZM54.5347 36.7857H59.3562V41.6071H54.5347V36.7857ZM59.3562 36.7857H64.1776V41.6071H59.3562V36.7857ZM59.3562 41.6071H64.1776V46.4286H59.3562V41.6071ZM54.5347 41.6071H59.3562V46.4286H54.5347V41.6071ZM49.7133 41.6071H54.5347V46.4286H49.7133V41.6071ZM44.8919 41.6071H49.7133V46.4286H44.8919V41.6071ZM40.0705 41.6071H44.8919V46.4286H40.0705V41.6071ZM35.249 41.6071H40.0705V46.4286H35.249V41.6071ZM64.1776 41.6071H68.999V46.4286H64.1776V41.6071ZM59.3562 46.4286H64.1776V51.25H59.3562V46.4286ZM64.1776 46.4286H68.999V51.25H64.1776V46.4286ZM64.1776 51.25H68.999V56.0714H64.1776V51.25ZM64.1776 56.0714H68.999V60.8929H64.1776V56.0714ZM59.3562 56.0714H64.1776V60.8929H59.3562V56.0714ZM59.3562 51.25H64.1776V56.0714H59.3562V51.25ZM59.3562 60.8929H64.1776V65.7143H59.3562V60.8929ZM59.3562 65.7143H64.1776V70.5357H59.3562V65.7143ZM54.5347 65.7143H59.3562V70.5357H54.5347V65.7143ZM54.5347 60.8929H59.3562V65.7143H54.5347V60.8929ZM49.7133 60.8929H54.5347V65.7143H49.7133V60.8929ZM49.7133 65.7143H54.5347V70.5357H49.7133V65.7143ZM44.8919 65.7143H49.7133V70.5357H44.8919V65.7143ZM44.8919 60.8929H49.7133V65.7143H44.8919V60.8929ZM40.0705 60.8929H44.8919V65.7143H40.0705V60.8929ZM35.249 60.8929H40.0705V65.7143H35.249V60.8929ZM35.249 65.7143H40.0705V70.5357H35.249V65.7143ZM40.0705 65.7143H44.8919V70.5357H40.0705V65.7143ZM35.249 46.4286H40.0705V51.25H35.249V46.4286ZM40.0705 46.4286H44.8919V51.25H40.0705V46.4286ZM40.0705 51.25H44.8919V56.0714H40.0705V51.25ZM40.0705 56.0714H44.8919V60.8929H40.0705V56.0714ZM35.249 51.25H40.0705V56.0714H35.249V51.25ZM35.249 56.0714H40.0705V60.8929H35.249V56.0714ZM35.249 70.5357H40.0705V75.3571H35.249V70.5357ZM40.0705 70.5357H44.8919V75.3571H40.0705V70.5357ZM40.0705 75.3571H44.8919V80.1786H40.0705V75.3571ZM40.0705 80.1786H44.8919V85H40.0705V80.1786ZM35.249 80.1786H40.0705V85H35.249V80.1786ZM35.249 75.3571H40.0705V80.1786H35.249V75.3571ZM64.1776 60.8929H68.999V65.7143H64.1776V60.8929Z"/>
<path d="M73.833 36.7857H78.6544V41.6071H73.833V36.7857ZM78.6544 36.7857H83.4759V41.6071H78.6544V36.7857ZM78.6544 41.6071H83.4759V46.4286H78.6544V41.6071ZM78.6544 46.4286H83.4759V51.25H78.6544V46.4286ZM78.6544 51.25H83.4759V56.0714H78.6544V51.25ZM73.833 51.25H78.6544V56.0714H73.833V51.25ZM73.833 46.4286H78.6544V51.25H73.833V46.4286ZM73.833 41.6071H78.6544V46.4286H73.833V41.6071ZM73.833 56.0714H78.6544V60.8929H73.833V56.0714ZM73.833 60.8929H78.6544V65.7143H73.833V60.8929ZM73.833 65.7143H78.6544V70.5357H73.833V65.7143ZM78.6544 60.8929H83.4759V65.7143H78.6544V60.8929ZM78.6544 56.0714H83.4759V60.8929H78.6544V56.0714ZM78.6544 65.7143H83.4759V70.5357H78.6544V65.7143ZM78.6544 70.5357H83.4759V75.3571H78.6544V70.5357ZM73.833 75.3571H78.6544V80.1786H73.833V75.3571ZM73.833 70.5357H78.6544V75.3571H73.833V70.5357ZM73.833 80.1786H78.6544V85H73.833V80.1786ZM78.6544 80.1786H83.4759V85H78.6544V80.1786ZM78.6544 75.3571H83.4759V80.1786H78.6544V75.3571ZM83.4759 80.1786H88.2973V85H83.4759V80.1786ZM88.2973 80.1786H93.1187V85H88.2973V80.1786ZM93.1187 80.1786H97.9401V85H93.1187V80.1786ZM93.1187 75.3571H97.9401V80.1786H93.1187V75.3571ZM88.2973 75.3571H93.1187V80.1786H88.2973V75.3571ZM83.4759 75.3571H88.2973V80.1786H83.4759V75.3571Z"/>
<path d="M112.392 41.6071H117.213V46.4286H112.392V41.6071ZM117.213 41.6071H122.035V46.4286H117.213V41.6071ZM117.213 36.7857H122.035V41.6071H117.213V36.7857ZM122.035 41.6071H126.856V46.4286H122.035V41.6071ZM122.035 46.4286H126.856V51.25H122.035V46.4286ZM126.856 46.4286H131.678V51.25H126.856V46.4286ZM117.213 46.4286H122.035V51.25H117.213V46.4286ZM112.392 46.4286H117.213V51.25H112.392V46.4286ZM107.57 46.4286H112.392V51.25H107.57V46.4286ZM107.57 51.25H112.392V56.0714H107.57V51.25ZM102.749 51.25H107.57V56.0714H102.749V51.25ZM112.392 51.25H117.213V56.0714H112.392V51.25ZM107.57 56.0714H112.392V60.8929H107.57V56.0714ZM107.57 60.8929H112.392V65.7143H107.57V60.8929ZM107.57 65.7143H112.392V70.5357H107.57V65.7143ZM112.392 65.7143H117.213V70.5357H112.392V65.7143ZM117.213 65.7143H122.035V70.5357H117.213V65.7143ZM122.035 65.7143H126.856V70.5357H122.035V65.7143ZM126.856 65.7143H131.678V70.5357H126.856V65.7143ZM131.678 65.7143H136.499V70.5357H131.678V65.7143ZM131.678 60.8929H136.499V65.7143H131.678V60.8929ZM131.678 56.0714H136.499V60.8929H131.678V56.0714ZM131.678 51.25H136.499V56.0714H131.678V51.25ZM126.856 51.25H131.678V56.0714H126.856V51.25ZM122.035 51.25H126.856V56.0714H122.035V51.25ZM126.856 56.0714H131.678V60.8929H126.856V56.0714ZM126.856 60.8929H131.678V65.7143H126.856V60.8929ZM126.856 70.5357H131.678V75.3571H126.856V70.5357ZM131.678 70.5357H136.499V75.3571H131.678V70.5357ZM131.678 75.3571H136.499V80.1786H131.678V75.3571ZM131.678 80.1786H136.499V85H131.678V80.1786ZM126.856 80.1786H131.678V85H126.856V80.1786ZM126.856 75.3571H131.678V80.1786H126.856V75.3571ZM122.035 70.5357H126.856V75.3571H122.035V70.5357ZM117.213 70.5357H122.035V75.3571H117.213V70.5357ZM112.392 70.5357H117.213V75.3571H112.392V70.5357ZM107.57 70.5357H112.392V75.3571H107.57V70.5357ZM107.57 75.3571H112.392V80.1786H107.57V75.3571ZM107.57 80.1786H112.392V85H107.57V80.1786ZM102.749 80.1786H107.57V85H102.749V80.1786ZM102.749 75.3571H107.57V80.1786H102.749V75.3571ZM102.749 70.5357H107.57V75.3571H102.749V70.5357ZM102.749 65.7143H107.57V70.5357H102.749V65.7143ZM102.749 60.8929H107.57V65.7143H102.749V60.8929ZM102.749 56.0714H107.57V60.8929H102.749V56.0714Z"/>
<path d="M141.333 36.7857H146.154V41.6071H141.333V36.7857ZM146.154 36.7857H150.976V41.6071H146.154V36.7857ZM146.154 41.6071H150.976V46.4286H146.154V41.6071ZM146.154 46.4286H150.976V51.25H146.154V46.4286ZM141.333 46.4286H146.154V51.25H141.333V46.4286ZM141.333 41.6071H146.154V46.4286H141.333V41.6071ZM141.333 51.25H146.154V56.0714H141.333V51.25ZM141.333 56.0714H146.154V60.8929H141.333V56.0714ZM146.154 56.0714H150.976V60.8929H146.154V56.0714ZM146.154 51.25H150.976V56.0714H146.154V51.25ZM146.154 60.8929H150.976V65.7143H146.154V60.8929ZM150.976 60.8929H155.797V65.7143H150.976V60.8929ZM150.976 56.0714H155.797V60.8929H150.976V56.0714ZM150.976 65.7143H155.797V70.5357H150.976V65.7143ZM155.797 65.7143H160.619V70.5357H155.797V65.7143ZM155.797 60.8929H160.619V65.7143H155.797V60.8929ZM160.619 60.8929H165.44V65.7143H160.619V60.8929ZM160.619 65.7143H165.44V70.5357H160.619V65.7143ZM165.44 65.7143H170.262V70.5357H165.44V65.7143ZM165.44 60.8929H170.262V65.7143H165.44V60.8929ZM165.44 56.0714H170.262V60.8929H165.44V56.0714ZM170.262 56.0714H175.083V60.8929H170.262V56.0714ZM170.262 60.8929H175.083V65.7143H170.262V60.8929ZM170.262 51.25H175.083V56.0714H170.262V51.25ZM170.262 46.4286H175.083V51.25H170.262V46.4286ZM170.262 41.6071H175.083V46.4286H170.262V41.6071ZM170.262 36.7857H175.083V41.6071H170.262V36.7857ZM175.083 36.7857H179.904V41.6071H175.083V36.7857ZM175.083 41.6071H179.904V46.4286H175.083V41.6071ZM175.083 46.4286H179.904V51.25H175.083V46.4286ZM175.083 51.25H179.904V56.0714H175.083V51.25ZM175.083 56.0714H179.904V60.8929H175.083V56.0714ZM155.797 70.5357H160.619V75.3571H155.797V70.5357ZM155.797 75.3571H160.619V80.1786H155.797V75.3571ZM155.797 80.1786H160.619V85H155.797V80.1786ZM160.619 80.1786H165.44V85H160.619V80.1786ZM160.619 75.3571H165.44V80.1786H160.619V75.3571ZM160.619 70.5357H165.44V75.3571H160.619V70.5357Z"/>
</mask>
<path d="M10 87H21V99H10V87Z" fill="#EDCB55"/>
<path d="M10 77H21V87H10V77Z" fill="#EDCB55"/>
<path d="M10 66H21V77H10V66Z" fill="#EDCB55"/>
<path d="M10 54H21V66H10V54Z" fill="#EDCB55"/>
<path d="M10 43H21V54H10V43Z" fill="#EDCB55"/>
<path d="M10 33H21V43H10V33Z" fill="#EDCB55"/>
<path d="M10 21H21V33H10V21Z" fill="#EDCB55"/>
<path d="M21 21H199V99H21V21Z" fill="#F3B329"/>
<path d="M199 87H210V99H199V87Z" fill="#B48606"/>
<path d="M199 77H210V87H199V77Z" fill="#B48606"/>
<path d="M199 66H210V77H199V66Z" fill="#B48606"/>
<path d="M199 54H210V66H199V54Z" fill="#B48606"/>
<path d="M199 43H210V54H199V43Z" fill="#B48606"/>
<path d="M199 33H210V43H199V33Z" fill="#B48606"/>
<path d="M199 21H210V33H199V21Z" fill="#B48606"/>
<path d="M188 10H199V21H188V10Z" fill="#FBD554"/>
<path d="M110 21.0005V10.0005L121 10.0005V21.0005H110Z" fill="#FBD554"/>
<path d="M98 21.0002V10.0002L110 10.0005V21.0005L98 21.0002Z" fill="#FBD554"/>
<path d="M88.001 21.0002V10.0002H98V21.0002H88.001Z" fill="#FBD554"/>
<path d="M77 21.0002V10.0002H88.001V21.0002H77Z" fill="#FBD554"/>
<path d="M65 21.0002V10.0002H77V21.0002H65Z" fill="#FBD554"/>
<path d="M54 21.0002V10.0002H65V21.0002H54Z" fill="#FBD554"/>
<path d="M177 21.0002V10.0002L188 10V21L177 21.0002Z" fill="#FBD554"/>
<path d="M165 21V10L177 10.0002V21.0002L165 21Z" fill="#FBD554"/>
<path d="M155.001 21V10H165V21H155.001Z" fill="#FBD554"/>
<path d="M144 21V10H155.001V21H144Z" fill="#FBD554"/>
<path d="M132 21V10H144V21H132Z" fill="#FBD554"/>
<path d="M121 21.0005V10.0005L132 10V21L121 21.0005Z" fill="#FBD554"/>
<path d="M44 21.0005V10.0005L54 10.0002V21.0002L44 21.0005Z" fill="#FBD554"/>
<path d="M32 21V10L44 10.0005V21.0005L32 21Z" fill="#FBD554"/>
<path d="M21 21V10.0002L32 10V21H21Z" fill="#FBD554"/>
<path d="M188 99H199V110H188V99Z" fill="#A95B0A"/>
<path d="M110 110V99.0005H121V110H110Z" fill="#A95B0A"/>
<path d="M98 110V99.0002L110 99.0005V110L98 110Z" fill="#A95B0A"/>
<path d="M88.001 110V99.0002H98V110H88.001Z" fill="#A95B0A"/>
<path d="M77 110V99.0002H88.001V110H77Z" fill="#A95B0A"/>
<path d="M65 110V99.0002H77V110H65Z" fill="#A95B0A"/>
<path d="M54 110V99.0002H65V110H54Z" fill="#A95B0A"/>
<path d="M177 110V99.0002L188 99V110L177 110Z" fill="#A95B0A"/>
<path d="M165 110V99L177 99.0002V110L165 110Z" fill="#A95B0A"/>
<path d="M155.001 110V99H165V110H155.001Z" fill="#A95B0A"/>
<path d="M144 110V99H155.001V110H144Z" fill="#A95B0A"/>
<path d="M132 110V99H144V110H132Z" fill="#A95B0A"/>
<path d="M121 110V99.0005L132 99V110L121 110Z" fill="#A95B0A"/>
<path d="M44 110V99.0005L54 99.0002V110L44 110Z" fill="#A95B0A"/>
<path d="M32 110V99L44 99.0005V110L32 110Z" fill="#A95B0A"/>
<path d="M21 110V99H32V110L21 110Z" fill="#A95B0A"/>
<path d="M35.249 36.7857H40.0705V41.6071H35.249V36.7857ZM40.0705 36.7857H44.8919V41.6071H40.0705V36.7857ZM44.8919 36.7857H49.7133V41.6071H44.8919V36.7857ZM49.7133 36.7857H54.5347V41.6071H49.7133V36.7857ZM54.5347 36.7857H59.3562V41.6071H54.5347V36.7857ZM59.3562 36.7857H64.1776V41.6071H59.3562V36.7857ZM59.3562 41.6071H64.1776V46.4286H59.3562V41.6071ZM54.5347 41.6071H59.3562V46.4286H54.5347V41.6071ZM49.7133 41.6071H54.5347V46.4286H49.7133V41.6071ZM44.8919 41.6071H49.7133V46.4286H44.8919V41.6071ZM40.0705 41.6071H44.8919V46.4286H40.0705V41.6071ZM35.249 41.6071H40.0705V46.4286H35.249V41.6071ZM64.1776 41.6071H68.999V46.4286H64.1776V41.6071ZM59.3562 46.4286H64.1776V51.25H59.3562V46.4286ZM64.1776 46.4286H68.999V51.25H64.1776V46.4286ZM64.1776 51.25H68.999V56.0714H64.1776V51.25ZM64.1776 56.0714H68.999V60.8929H64.1776V56.0714ZM59.3562 56.0714H64.1776V60.8929H59.3562V56.0714ZM59.3562 51.25H64.1776V56.0714H59.3562V51.25ZM59.3562 60.8929H64.1776V65.7143H59.3562V60.8929ZM59.3562 65.7143H64.1776V70.5357H59.3562V65.7143ZM54.5347 65.7143H59.3562V70.5357H54.5347V65.7143ZM54.5347 60.8929H59.3562V65.7143H54.5347V60.8929ZM49.7133 60.8929H54.5347V65.7143H49.7133V60.8929ZM49.7133 65.7143H54.5347V70.5357H49.7133V65.7143ZM44.8919 65.7143H49.7133V70.5357H44.8919V65.7143ZM44.8919 60.8929H49.7133V65.7143H44.8919V60.8929ZM40.0705 60.8929H44.8919V65.7143H40.0705V60.8929ZM35.249 60.8929H40.0705V65.7143H35.249V60.8929ZM35.249 65.7143H40.0705V70.5357H35.249V65.7143ZM40.0705 65.7143H44.8919V70.5357H40.0705V65.7143ZM35.249 46.4286H40.0705V51.25H35.249V46.4286ZM40.0705 46.4286H44.8919V51.25H40.0705V46.4286ZM40.0705 51.25H44.8919V56.0714H40.0705V51.25ZM40.0705 56.0714H44.8919V60.8929H40.0705V56.0714ZM35.249 51.25H40.0705V56.0714H35.249V51.25ZM35.249 56.0714H40.0705V60.8929H35.249V56.0714ZM35.249 70.5357H40.0705V75.3571H35.249V70.5357ZM40.0705 70.5357H44.8919V75.3571H40.0705V70.5357ZM40.0705 75.3571H44.8919V80.1786H40.0705V75.3571ZM40.0705 80.1786H44.8919V85H40.0705V80.1786ZM35.249 80.1786H40.0705V85H35.249V80.1786ZM35.249 75.3571H40.0705V80.1786H35.249V75.3571ZM64.1776 60.8929H68.999V65.7143H64.1776V60.8929Z" fill="white"/>
<path d="M73.833 36.7857H78.6544V41.6071H73.833V36.7857ZM78.6544 36.7857H83.4759V41.6071H78.6544V36.7857ZM78.6544 41.6071H83.4759V46.4286H78.6544V41.6071ZM78.6544 46.4286H83.4759V51.25H78.6544V46.4286ZM78.6544 51.25H83.4759V56.0714H78.6544V51.25ZM73.833 51.25H78.6544V56.0714H73.833V51.25ZM73.833 46.4286H78.6544V51.25H73.833V46.4286ZM73.833 41.6071H78.6544V46.4286H73.833V41.6071ZM73.833 56.0714H78.6544V60.8929H73.833V56.0714ZM73.833 60.8929H78.6544V65.7143H73.833V60.8929ZM73.833 65.7143H78.6544V70.5357H73.833V65.7143ZM78.6544 60.8929H83.4759V65.7143H78.6544V60.8929ZM78.6544 56.0714H83.4759V60.8929H78.6544V56.0714ZM78.6544 65.7143H83.4759V70.5357H78.6544V65.7143ZM78.6544 70.5357H83.4759V75.3571H78.6544V70.5357ZM73.833 75.3571H78.6544V80.1786H73.833V75.3571ZM73.833 70.5357H78.6544V75.3571H73.833V70.5357ZM73.833 80.1786H78.6544V85H73.833V80.1786ZM78.6544 80.1786H83.4759V85H78.6544V80.1786ZM78.6544 75.3571H83.4759V80.1786H78.6544V75.3571ZM83.4759 80.1786H88.2973V85H83.4759V80.1786ZM88.2973 80.1786H93.1187V85H88.2973V80.1786ZM93.1187 80.1786H97.9401V85H93.1187V80.1786ZM93.1187 75.3571H97.9401V80.1786H93.1187V75.3571ZM88.2973 75.3571H93.1187V80.1786H88.2973V75.3571ZM83.4759 75.3571H88.2973V80.1786H83.4759V75.3571Z" fill="white"/>
<path d="M112.392 41.6071H117.213V46.4286H112.392V41.6071ZM117.213 41.6071H122.035V46.4286H117.213V41.6071ZM117.213 36.7857H122.035V41.6071H117.213V36.7857ZM122.035 41.6071H126.856V46.4286H122.035V41.6071ZM122.035 46.4286H126.856V51.25H122.035V46.4286ZM126.856 46.4286H131.678V51.25H126.856V46.4286ZM117.213 46.4286H122.035V51.25H117.213V46.4286ZM112.392 46.4286H117.213V51.25H112.392V46.4286ZM107.57 46.4286H112.392V51.25H107.57V46.4286ZM107.57 51.25H112.392V56.0714H107.57V51.25ZM102.749 51.25H107.57V56.0714H102.749V51.25ZM112.392 51.25H117.213V56.0714H112.392V51.25ZM107.57 56.0714H112.392V60.8929H107.57V56.0714ZM107.57 60.8929H112.392V65.7143H107.57V60.8929ZM107.57 65.7143H112.392V70.5357H107.57V65.7143ZM112.392 65.7143H117.213V70.5357H112.392V65.7143ZM117.213 65.7143H122.035V70.5357H117.213V65.7143ZM122.035 65.7143H126.856V70.5357H122.035V65.7143ZM126.856 65.7143H131.678V70.5357H126.856V65.7143ZM131.678 65.7143H136.499V70.5357H131.678V65.7143ZM131.678 60.8929H136.499V65.7143H131.678V60.8929ZM131.678 56.0714H136.499V60.8929H131.678V56.0714ZM131.678 51.25H136.499V56.0714H131.678V51.25ZM126.856 51.25H131.678V56.0714H126.856V51.25ZM122.035 51.25H126.856V56.0714H122.035V51.25ZM126.856 56.0714H131.678V60.8929H126.856V56.0714ZM126.856 60.8929H131.678V65.7143H126.856V60.8929ZM126.856 70.5357H131.678V75.3571H126.856V70.5357ZM131.678 70.5357H136.499V75.3571H131.678V70.5357ZM131.678 75.3571H136.499V80.1786H131.678V75.3571ZM131.678 80.1786H136.499V85H131.678V80.1786ZM126.856 80.1786H131.678V85H126.856V80.1786ZM126.856 75.3571H131.678V80.1786H126.856V75.3571ZM122.035 70.5357H126.856V75.3571H122.035V70.5357ZM117.213 70.5357H122.035V75.3571H117.213V70.5357ZM112.392 70.5357H117.213V75.3571H112.392V70.5357ZM107.57 70.5357H112.392V75.3571H107.57V70.5357ZM107.57 75.3571H112.392V80.1786H107.57V75.3571ZM107.57 80.1786H112.392V85H107.57V80.1786ZM102.749 80.1786H107.57V85H102.749V80.1786ZM102.749 75.3571H107.57V80.1786H102.749V75.3571ZM102.749 70.5357H107.57V75.3571H102.749V70.5357ZM102.749 65.7143H107.57V70.5357H102.749V65.7143ZM102.749 60.8929H107.57V65.7143H102.749V60.8929ZM102.749 56.0714H107.57V60.8929H102.749V56.0714Z" fill="white"/>
<path d="M141.333 36.7857H146.154V41.6071H141.333V36.7857ZM146.154 36.7857H150.976V41.6071H146.154V36.7857ZM146.154 41.6071H150.976V46.4286H146.154V41.6071ZM146.154 46.4286H150.976V51.25H146.154V46.4286ZM141.333 46.4286H146.154V51.25H141.333V46.4286ZM141.333 41.6071H146.154V46.4286H141.333V41.6071ZM141.333 51.25H146.154V56.0714H141.333V51.25ZM141.333 56.0714H146.154V60.8929H141.333V56.0714ZM146.154 56.0714H150.976V60.8929H146.154V56.0714ZM146.154 51.25H150.976V56.0714H146.154V51.25ZM146.154 60.8929H150.976V65.7143H146.154V60.8929ZM150.976 60.8929H155.797V65.7143H150.976V60.8929ZM150.976 56.0714H155.797V60.8929H150.976V56.0714ZM150.976 65.7143H155.797V70.5357H150.976V65.7143ZM155.797 65.7143H160.619V70.5357H155.797V65.7143ZM155.797 60.8929H160.619V65.7143H155.797V60.8929ZM160.619 60.8929H165.44V65.7143H160.619V60.8929ZM160.619 65.7143H165.44V70.5357H160.619V65.7143ZM165.44 65.7143H170.262V70.5357H165.44V65.7143ZM165.44 60.8929H170.262V65.7143H165.44V60.8929ZM165.44 56.0714H170.262V60.8929H165.44V56.0714ZM170.262 56.0714H175.083V60.8929H170.262V56.0714ZM170.262 60.8929H175.083V65.7143H170.262V60.8929ZM170.262 51.25H175.083V56.0714H170.262V51.25ZM170.262 46.4286H175.083V51.25H170.262V46.4286ZM170.262 41.6071H175.083V46.4286H170.262V41.6071ZM170.262 36.7857H175.083V41.6071H170.262V36.7857ZM175.083 36.7857H179.904V41.6071H175.083V36.7857ZM175.083 41.6071H179.904V46.4286H175.083V41.6071ZM175.083 46.4286H179.904V51.25H175.083V46.4286ZM175.083 51.25H179.904V56.0714H175.083V51.25ZM175.083 56.0714H179.904V60.8929H175.083V56.0714ZM155.797 70.5357H160.619V75.3571H155.797V70.5357ZM155.797 75.3571H160.619V80.1786H155.797V75.3571ZM155.797 80.1786H160.619V85H155.797V80.1786ZM160.619 80.1786H165.44V85H160.619V80.1786ZM160.619 75.3571H165.44V80.1786H160.619V75.3571ZM160.619 70.5357H165.44V75.3571H160.619V70.5357Z" fill="white"/>
<path d="M64.1776 41.6071H69.1776V36.6071H64.1776V41.6071ZM59.3562 46.4286H54.3562V51.4286H59.3562V46.4286ZM44.8919 46.4286V51.4286H49.8919V46.4286H44.8919ZM59.3562 60.8929V55.8929H54.3562V60.8929H59.3562ZM64.1776 65.7143V70.7143H69.1776V65.7143H64.1776ZM44.8919 70.5357V75.5357H49.8919V70.5357H44.8919ZM44.8919 60.8929H49.8919V55.8929H44.8919V60.8929ZM83.4759 75.3571H88.4759V70.3571H83.4759V75.3571ZM117.213 41.6071V36.6071H112.213V41.6071H117.213ZM112.392 46.4286V41.4286H107.392V46.4286H112.392ZM122.035 41.6071H127.035V36.6071H122.035V41.6071ZM126.856 46.4286H131.856V41.4286H126.856V46.4286ZM122.035 51.25H117.035V56.25H122.035V51.25ZM131.678 51.25H136.678V46.25H131.678V51.25ZM117.213 51.25V56.25H122.213V51.25H117.213ZM107.57 51.25V46.25H102.57V51.25H107.57ZM112.392 56.0714V61.0714H117.392V56.0714H112.392ZM112.392 65.7143H117.392V60.7143H112.392V65.7143ZM126.856 65.7143V60.7143H121.856V65.7143H126.856ZM126.856 56.0714H121.856V61.0714H126.856V56.0714ZM126.856 75.3571H121.856V80.3571H126.856V75.3571ZM112.392 75.3571V80.3571H117.392V75.3571H112.392ZM146.154 60.8929H141.154V65.8929H146.154V60.8929ZM150.976 56.0714H155.976V51.0714H150.976V56.0714ZM150.976 65.7143H145.976V70.7143H150.976V65.7143ZM155.797 60.8929H160.797V55.8929H155.797V60.8929ZM155.797 70.5357H150.797V75.5357H155.797V70.5357ZM165.44 60.8929V55.8929H160.44V60.8929H165.44ZM165.44 70.5357V75.5357H170.44V70.5357H165.44ZM170.262 65.7143V70.7143H175.262V65.7143H170.262ZM170.262 56.0714V51.0714H165.262V56.0714H170.262ZM175.083 60.8929V65.8929H180.083V60.8929H175.083ZM10 87V92H21V87V82H10V87ZM10 77V82H21V77V72H10V77ZM10 66V71H21V66V61H10V66ZM10 54V59H21V54V49H10V54ZM10 43V48H21V43V38H10V43ZM10 33V38H21V33V28H10V33ZM199 87V92H210V87V82H199V87ZM199 77V82H210V77V72H199V77ZM199 66V71H210V66V61H199V66ZM199 54V59H210V54V49H199V54ZM199 43V48H210V43V38H199V43ZM199 33V38H210V33V28H199V33ZM188 21H193V10H188H183V21H188ZM110 21.0005H115V10.0005H110H105V21.0005H110ZM121 10.0005H116V21.0005H121H126V10.0005H121ZM98 21.0002H103V10.0002H98H93V21.0002H98ZM88.001 21.0002H93.001V10.0002H88.001H83.001V21.0002H88.001ZM77 21.0002H82V10.0002H77H72V21.0002H77ZM65 21.0002H70V10.0002H65H60V21.0002H65ZM54 21.0002H59V10.0002H54H49V21.0002H54ZM177 21.0002H182V10.0002H177H172V21.0002H177ZM165 21H170V10H165H160V21H165ZM155.001 21H160.001V10H155.001H150.001V21H155.001ZM144 21H149V10H144H139V21H144ZM132 21H137V10H132H127V21H132ZM44 21.0005H49V10.0005H44H39V21.0005H44ZM32 21H37V10H32H27V21H32ZM188 110H193V99H188H183V110H188ZM110 110H115V99.0005H110H105V110H110ZM121 99.0005H116V110H121H126V99.0005H121ZM98 110H103V99.0002H98H93V110H98ZM88.001 110H93.001V99.0002H88.001H83.001V110H88.001ZM77 110H82V99.0002H77H72V110H77ZM65 110H70V99.0002H65H60V110H65ZM54 110H59V99.0002H54H49V110H54ZM177 110H182V99.0002H177H172V110H177ZM165 110H170V99H165H160V110H165ZM155.001 110H160.001V99H155.001H150.001V110H155.001ZM144 110H149V99H144H139V110H144ZM132 110H137V99H132H127V110H132ZM44 110H49V99.0005H44H39V110H44ZM32 110H37V99H32H27V110H32ZM40.0705 36.7857H35.0705V41.6071H40.0705H45.0704V36.7857H40.0705ZM40.0705 41.6071V36.6071H35.249V41.6071V46.6071H40.0705V41.6071ZM44.8919 36.7857H39.8919V41.6071H44.8919H49.8919V36.7857H44.8919ZM44.8919 41.6071V36.6071H40.0705V41.6071V46.6071H44.8919V41.6071ZM49.7133 36.7857H44.7133V41.6071H49.7133H54.7133V36.7857H49.7133ZM49.7133 41.6071V36.6071H44.8919V41.6071V46.6071H49.7133V41.6071ZM54.5347 36.7857H49.5347V41.6071H54.5347H59.5347V36.7857H54.5347ZM54.5347 41.6071V36.6071H49.7133V41.6071V46.6071H54.5347V41.6071ZM59.3562 36.7857H54.3562V41.6071H59.3562H64.3562V36.7857H59.3562ZM59.3562 41.6071V36.6071H54.5347V41.6071V46.6071H59.3562V41.6071ZM64.1776 41.6071V36.6071H59.3562V41.6071V46.6071H64.1776V41.6071ZM64.1776 41.6071H59.1776V46.4286H64.1776H69.1776V41.6071H64.1776ZM64.1776 46.4286V41.4286H59.3562V46.4286V51.4286H64.1776V46.4286ZM59.3562 46.4286H64.3562V41.6071H59.3562H54.3562V46.4286H59.3562ZM54.5347 46.4286H59.5347V41.6071H54.5347H49.5347V46.4286H54.5347ZM49.7133 46.4286H54.7133V41.6071H49.7133H44.7133V46.4286H49.7133ZM44.8919 46.4286H49.8919V41.6071H44.8919H39.8919V46.4286H44.8919ZM44.8919 46.4286V41.4286H40.0705V46.4286V51.4286H44.8919V46.4286ZM40.0705 46.4286H45.0704V41.6071H40.0705H35.0705V46.4286H40.0705ZM40.0705 46.4286V41.4286H35.249V46.4286V51.4286H40.0705V46.4286ZM68.999 46.4286V41.4286H64.1776V46.4286V51.4286H68.999V46.4286ZM64.1776 46.4286H59.1776V51.25H64.1776H69.1776V46.4286H64.1776ZM64.1776 51.25V46.25H59.3562V51.25V56.25H64.1776V51.25ZM68.999 51.25V46.25H64.1776V51.25V56.25H68.999V51.25ZM68.999 56.0714V51.0714H64.1776V56.0714V61.0714H68.999V56.0714ZM64.1776 56.0714H69.1776V51.25H64.1776H59.1776V56.0714H64.1776ZM68.999 60.8929V55.8929H64.1776V60.8929V65.8929H68.999V60.8929ZM64.1776 60.8929H69.1776V56.0714H64.1776H59.1776V60.8929H64.1776ZM59.3562 56.0714V61.0714H64.1776V56.0714V51.0714H59.3562V56.0714ZM64.1776 60.8929V55.8929H59.3562V60.8929V65.8929H64.1776V60.8929ZM64.1776 60.8929H59.1776V65.7143H64.1776H69.1776V60.8929H64.1776ZM64.1776 65.7143V60.7143H59.3562V65.7143V70.7143H64.1776V65.7143ZM59.3562 65.7143H64.3562V60.8929H59.3562H54.3562V65.7143H59.3562ZM59.3562 70.5357H64.3562V65.7143H59.3562H54.3562V70.5357H59.3562ZM54.5347 65.7143V70.7143H59.3562V65.7143V60.7143H54.5347V65.7143ZM54.5347 70.5357H59.5347V65.7143H54.5347H49.5347V70.5357H54.5347ZM54.5347 65.7143H59.5347V60.8929H54.5347H49.5347V65.7143H54.5347ZM54.5347 65.7143V60.7143H49.7133V65.7143V70.7143H54.5347V65.7143ZM49.7133 65.7143H54.7133V60.8929H49.7133H44.7133V65.7143H49.7133ZM49.7133 70.5357H54.7133V65.7143H49.7133H44.7133V70.5357H49.7133ZM44.8919 65.7143V70.7143H49.7133V65.7143V60.7143H44.8919V65.7143ZM44.8919 70.5357H49.8919V65.7143H44.8919H39.8919V70.5357H44.8919ZM44.8919 65.7143H49.8919V60.8929H44.8919H39.8919V65.7143H44.8919ZM40.0705 60.8929V65.8929H44.8919V60.8929V55.8929H40.0705V60.8929ZM44.8919 65.7143V60.7143H40.0705V65.7143V70.7143H44.8919V65.7143ZM40.0705 65.7143H45.0704V60.8929H40.0705H35.0705V65.7143H40.0705ZM35.249 60.8929V65.8929H40.0705V60.8929V55.8929H35.249V60.8929ZM40.0705 65.7143V60.7143H35.249V65.7143V70.7143H40.0705V65.7143ZM40.0705 65.7143H35.0705V70.5357H40.0705H45.0704V65.7143H40.0705ZM40.0705 70.5357V65.5357H35.249V70.5357V75.5357H40.0705V70.5357ZM44.8919 70.5357V65.5357H40.0705V70.5357V75.5357H44.8919V70.5357ZM40.0705 46.4286H35.0705V51.25H40.0705H45.0704V46.4286H40.0705ZM40.0705 51.25V46.25H35.249V51.25V56.25H40.0705V51.25ZM44.8919 51.25V46.25H40.0705V51.25V56.25H44.8919V51.25ZM44.8919 56.0714V51.0714H40.0705V56.0714V61.0714H44.8919V56.0714ZM40.0705 56.0714H45.0704V51.25H40.0705H35.0705V56.0714H40.0705ZM40.0705 60.8929H45.0704V56.0714H40.0705H35.0705V60.8929H40.0705ZM40.0705 56.0714V51.0714H35.249V56.0714V61.0714H40.0705V56.0714ZM40.0705 70.5357H35.0705V75.3571H40.0705H45.0704V70.5357H40.0705ZM40.0705 75.3571V70.3571H35.249V75.3571V80.3571H40.0705V75.3571ZM44.8919 75.3571V70.3571H40.0705V75.3571V80.3571H44.8919V75.3571ZM44.8919 80.1786V75.1786H40.0705V80.1786V85.1786H44.8919V80.1786ZM40.0705 80.1786H45.0704V75.3571H40.0705H35.0705V80.1786H40.0705ZM40.0705 85H45.0704V80.1786H40.0705H35.0705V85H40.0705ZM35.249 80.1786V85.1786H40.0705V80.1786V75.1786H35.249V80.1786ZM78.6544 36.7857H73.6544V41.6071H78.6544H83.6544V36.7857H78.6544ZM78.6544 41.6071V36.6071H73.833V41.6071V46.6071H78.6544V41.6071ZM83.4759 41.6071V36.6071H78.6544V41.6071V46.6071H83.4759V41.6071ZM83.4759 46.4286V41.4286H78.6544V46.4286V51.4286H83.4759V46.4286ZM78.6544 46.4286H83.6544V41.6071H78.6544H73.6544V46.4286H78.6544ZM83.4759 51.25V46.25H78.6544V51.25V56.25H83.4759V51.25ZM78.6544 51.25H83.6544V46.4286H78.6544H73.6544V51.25H78.6544ZM83.4759 56.0714V51.0714H78.6544V56.0714V61.0714H83.4759V56.0714ZM78.6544 56.0714H83.6544V51.25H78.6544H73.6544V56.0714H78.6544ZM73.833 51.25V56.25H78.6544V51.25V46.25H73.833V51.25ZM78.6544 56.0714V51.0714H73.833V56.0714V61.0714H78.6544V56.0714ZM73.833 46.4286V51.4286H78.6544V46.4286V41.4286H73.833V46.4286ZM78.6544 56.0714H73.6544V60.8929H78.6544H83.6544V56.0714H78.6544ZM78.6544 60.8929V55.8929H73.833V60.8929V65.8929H78.6544V60.8929ZM78.6544 60.8929H73.6544V65.7143H78.6544H83.6544V60.8929H78.6544ZM78.6544 65.7143V60.7143H73.833V65.7143V70.7143H78.6544V65.7143ZM78.6544 65.7143H73.6544V70.5357H78.6544H83.6544V65.7143H78.6544ZM78.6544 70.5357V65.5357H73.833V70.5357V75.5357H78.6544V70.5357ZM78.6544 60.8929V65.8929H83.4759V60.8929V55.8929H78.6544V60.8929ZM83.4759 65.7143V60.7143H78.6544V65.7143V70.7143H83.4759V65.7143ZM83.4759 70.5357V65.5357H78.6544V70.5357V75.5357H83.4759V70.5357ZM83.4759 75.3571V70.3571H78.6544V75.3571V80.3571H83.4759V75.3571ZM78.6544 75.3571H83.6544V70.5357H78.6544H73.6544V75.3571H78.6544ZM73.833 75.3571V80.3571H78.6544V75.3571V70.3571H73.833V75.3571ZM78.6544 75.3571H73.6544V80.1786H78.6544H83.6544V75.3571H78.6544ZM78.6544 80.1786V75.1786H73.833V80.1786V85.1786H78.6544V80.1786ZM78.6544 80.1786H73.6544V85H78.6544H83.6544V80.1786H78.6544ZM78.6544 80.1786V85.1786H83.4759V80.1786V75.1786H78.6544V80.1786ZM83.4759 80.1786H78.4759V85H83.4759H88.4759V80.1786H83.4759ZM83.4759 75.3571H78.4759V80.1786H83.4759H88.4759V75.3571H83.4759ZM83.4759 80.1786V85.1786H88.2973V80.1786V75.1786H83.4759V80.1786ZM88.2973 80.1786H83.2973V85H88.2973H93.2973V80.1786H88.2973ZM88.2973 80.1786V85.1786H93.1187V80.1786V75.1786H88.2973V80.1786ZM93.1187 80.1786H88.1187V85H93.1187H98.1187V80.1786H93.1187ZM93.1187 80.1786V85.1786H97.9401V80.1786V75.1786H93.1187V80.1786ZM93.1187 80.1786H98.1187V75.3571H93.1187H88.1187V80.1786H93.1187ZM88.2973 80.1786H93.2973V75.3571H88.2973H83.2973V80.1786H88.2973ZM117.213 41.6071H112.213V46.4286H117.213H122.213V41.6071H117.213ZM117.213 46.4286V41.4286H112.392V46.4286V51.4286H117.213V46.4286ZM117.213 41.6071V46.6071H122.035V41.6071V36.6071H117.213V41.6071ZM122.035 41.6071H117.035V46.4286H122.035H127.035V41.6071H122.035ZM122.035 46.4286V41.4286H117.213V46.4286V51.4286H122.035V46.4286ZM126.856 46.4286V41.4286H122.035V46.4286V51.4286H126.856V46.4286ZM126.856 46.4286H121.856V51.25H126.856H131.856V46.4286H126.856ZM126.856 51.25V46.25H122.035V51.25V56.25H126.856V51.25ZM122.035 51.25H127.035V46.4286H122.035H117.035V51.25H122.035ZM131.678 51.25V46.25H126.856V51.25V56.25H131.678V51.25ZM117.213 51.25H122.213V46.4286H117.213H112.213V51.25H117.213ZM117.213 51.25V46.25H112.392V51.25V56.25H117.213V51.25ZM112.392 51.25H117.392V46.4286H112.392H107.392V51.25H112.392ZM112.392 51.25V46.25H107.57V51.25V56.25H112.392V51.25ZM112.392 51.25H107.392V56.0714H112.392H117.392V51.25H112.392ZM112.392 56.0714V51.0714H107.57V56.0714V61.0714H112.392V56.0714ZM107.57 56.0714H112.57V51.25H107.57H102.57V56.0714H107.57ZM107.57 56.0714V51.0714H102.749V56.0714V61.0714H107.57V56.0714ZM112.392 60.8929V55.8929H107.57V60.8929V65.8929H112.392V60.8929ZM107.57 60.8929H112.57V56.0714H107.57H102.57V60.8929H107.57ZM112.392 65.7143V60.7143H107.57V65.7143V70.7143H112.392V65.7143ZM107.57 65.7143H112.57V60.8929H107.57H102.57V65.7143H107.57ZM112.392 65.7143H107.392V70.5357H112.392H117.392V65.7143H112.392ZM112.392 70.5357V65.5357H107.57V70.5357V75.5357H112.392V70.5357ZM107.57 70.5357H112.57V65.7143H107.57H102.57V70.5357H107.57ZM117.213 65.7143H112.213V70.5357H117.213H122.213V65.7143H117.213ZM117.213 70.5357V65.5357H112.392V70.5357V75.5357H117.213V70.5357ZM122.035 65.7143H117.035V70.5357H122.035H127.035V65.7143H122.035ZM122.035 70.5357V65.5357H117.213V70.5357V75.5357H122.035V70.5357ZM126.856 65.7143H121.856V70.5357H126.856H131.856V65.7143H126.856ZM126.856 70.5357V65.5357H122.035V70.5357V75.5357H126.856V70.5357ZM126.856 65.7143V70.7143H131.678V65.7143V60.7143H126.856V65.7143ZM131.678 65.7143H126.678V70.5357H131.678H136.678V65.7143H131.678ZM131.678 70.5357V65.5357H126.856V70.5357V75.5357H131.678V70.5357ZM131.678 65.7143V70.7143H136.499V65.7143V60.7143H131.678V65.7143ZM136.499 70.5357V65.5357H131.678V70.5357V75.5357H136.499V70.5357ZM131.678 60.8929V65.8929H136.499V60.8929V55.8929H131.678V60.8929ZM131.678 65.7143H136.678V60.8929H131.678H126.678V65.7143H131.678ZM131.678 56.0714V61.0714H136.499V56.0714V51.0714H131.678V56.0714ZM131.678 60.8929H136.678V56.0714H131.678H126.678V60.8929H131.678ZM131.678 56.0714H136.678V51.25H131.678H126.678V56.0714H131.678ZM131.678 56.0714V51.0714H126.856V56.0714V61.0714H131.678V56.0714ZM126.856 56.0714H131.856V51.25H126.856H121.856V56.0714H126.856ZM131.678 60.8929V55.8929H126.856V60.8929V65.8929H131.678V60.8929ZM131.678 70.5357H126.678V75.3571H131.678H136.678V70.5357H131.678ZM131.678 75.3571V70.3571H126.856V75.3571V80.3571H131.678V75.3571ZM126.856 75.3571H131.856V70.5357H126.856H121.856V75.3571H126.856ZM136.499 75.3571V70.3571H131.678V75.3571V80.3571H136.499V75.3571ZM136.499 80.1786V75.1786H131.678V80.1786V85.1786H136.499V80.1786ZM131.678 80.1786H136.678V75.3571H131.678H126.678V80.1786H131.678ZM131.678 85H136.678V80.1786H131.678H126.678V85H131.678ZM126.856 80.1786V85.1786H131.678V80.1786V75.1786H126.856V80.1786ZM122.035 75.3571H127.035V70.5357H122.035H117.035V75.3571H122.035ZM117.213 75.3571H122.213V70.5357H117.213H112.213V75.3571H117.213ZM112.392 75.3571H117.392V70.5357H112.392H107.392V75.3571H112.392ZM112.392 75.3571V70.3571H107.57V75.3571V80.3571H112.392V75.3571ZM107.57 75.3571H112.57V70.5357H107.57H102.57V75.3571H107.57ZM112.392 80.1786V75.1786H107.57V80.1786V85.1786H112.392V80.1786ZM107.57 80.1786H112.57V75.3571H107.57H102.57V80.1786H107.57ZM107.57 85H112.57V80.1786H107.57H102.57V85H107.57ZM102.749 80.1786V85.1786H107.57V80.1786V75.1786H102.749V80.1786ZM102.749 75.3571V80.3571H107.57V75.3571V70.3571H102.749V75.3571ZM102.749 70.5357V75.5357H107.57V70.5357V65.5357H102.749V70.5357ZM102.749 65.7143V70.7143H107.57V65.7143V60.7143H102.749V65.7143ZM102.749 60.8929V65.8929H107.57V60.8929V55.8929H102.749V60.8929ZM146.154 36.7857H141.154V41.6071H146.154H151.154V36.7857H146.154ZM146.154 41.6071V36.6071H141.333V41.6071V46.6071H146.154V41.6071ZM150.976 41.6071V36.6071H146.154V41.6071V46.6071H150.976V41.6071ZM150.976 46.4286V41.4286H146.154V46.4286V51.4286H150.976V46.4286ZM146.154 46.4286H151.154V41.6071H146.154H141.154V46.4286H146.154ZM150.976 51.25V46.25H146.154V51.25V56.25H150.976V51.25ZM146.154 51.25H151.154V46.4286H146.154H141.154V51.25H146.154ZM141.333 46.4286V51.4286H146.154V46.4286V41.4286H141.333V46.4286ZM146.154 51.25V46.25H141.333V51.25V56.25H146.154V51.25ZM146.154 51.25H141.154V56.0714H146.154H151.154V51.25H146.154ZM146.154 56.0714V51.0714H141.333V56.0714V61.0714H146.154V56.0714ZM146.154 56.0714H141.154V60.8929H146.154H151.154V56.0714H146.154ZM146.154 56.0714V61.0714H150.976V56.0714V51.0714H146.154V56.0714ZM150.976 56.0714H145.976V60.8929H150.976H155.976V56.0714H150.976ZM150.976 60.8929V55.8929H146.154V60.8929V65.8929H150.976V60.8929ZM150.976 60.8929H145.976V65.7143H150.976H155.976V60.8929H150.976ZM150.976 60.8929V65.8929H155.797V60.8929V55.8929H150.976V60.8929ZM155.797 60.8929H150.797V65.7143H155.797H160.797V60.8929H155.797ZM155.797 65.7143V60.7143H150.976V65.7143V70.7143H155.797V65.7143ZM155.797 65.7143H150.797V70.5357H155.797H160.797V65.7143H155.797ZM155.797 65.7143V70.7143H160.619V65.7143V60.7143H155.797V65.7143ZM160.619 65.7143H155.619V70.5357H160.619H165.619V65.7143H160.619ZM160.619 70.5357V65.5357H155.797V70.5357V75.5357H160.619V70.5357ZM160.619 60.8929H155.619V65.7143H160.619H165.619V60.8929H160.619ZM165.44 60.8929H160.44V65.7143H165.44H170.44V60.8929H165.44ZM165.44 65.7143V60.7143H160.619V65.7143V70.7143H165.44V65.7143ZM165.44 65.7143H160.44V70.5357H165.44H170.44V65.7143H165.44ZM165.44 70.5357V65.5357H160.619V70.5357V75.5357H165.44V70.5357ZM165.44 65.7143V70.7143H170.262V65.7143V60.7143H165.44V65.7143ZM165.44 60.8929V65.8929H170.262V60.8929V55.8929H165.44V60.8929ZM170.262 60.8929H165.262V65.7143H170.262H175.262V60.8929H170.262ZM170.262 56.0714H165.262V60.8929H170.262H175.262V56.0714H170.262ZM170.262 56.0714V61.0714H175.083V56.0714V51.0714H170.262V56.0714ZM175.083 56.0714H170.083V60.8929H175.083H180.083V56.0714H175.083ZM175.083 60.8929V55.8929H170.262V60.8929V65.8929H175.083V60.8929ZM170.262 51.25V56.25H175.083V51.25V46.25H170.262V51.25ZM175.083 51.25H170.083V56.0714H175.083H180.083V51.25H175.083ZM170.262 46.4286V51.4286H175.083V46.4286V41.4286H170.262V46.4286ZM175.083 46.4286H170.083V51.25H175.083H180.083V46.4286H175.083ZM170.262 41.6071V46.6071H175.083V41.6071V36.6071H170.262V41.6071ZM175.083 41.6071H170.083V46.4286H175.083H180.083V41.6071H175.083ZM175.083 36.7857H170.083V41.6071H175.083H180.083V36.7857H175.083ZM179.904 41.6071V36.6071H175.083V41.6071V46.6071H179.904V41.6071ZM179.904 46.4286V41.4286H175.083V46.4286V51.4286H179.904V46.4286ZM179.904 51.25V46.25H175.083V51.25V56.25H179.904V51.25ZM179.904 56.0714V51.0714H175.083V56.0714V61.0714H179.904V56.0714ZM160.619 70.5357H155.619V75.3571H160.619H165.619V70.5357H160.619ZM160.619 75.3571V70.3571H155.797V75.3571V80.3571H160.619V75.3571ZM160.619 75.3571H155.619V80.1786H160.619H165.619V75.3571H160.619ZM160.619 80.1786V75.1786H155.797V80.1786V85.1786H160.619V80.1786ZM160.619 80.1786H155.619V85H160.619H165.619V80.1786H160.619ZM160.619 80.1786V85.1786H165.44V80.1786V75.1786H160.619V80.1786ZM160.619 75.3571V80.3571H165.44V75.3571V70.3571H160.619V75.3571ZM10 99H0V109H10V99ZM10 21V11H0V21H10ZM210 99V109H220V99H210ZM210 21H220V11H210V21ZM188 10V0H188L188 10ZM199 10H209V0H199V10ZM188 21V11H188L188 21ZM110 21.0005L110 31.0005H110V21.0005ZM110 10.0005L110 20.0005H110V10.0005ZM121 10.0005V20.0005H121L121 10.0005ZM121 21.0005V31.0005H121L121 21.0005ZM98 21.0002L98.0002 11.0002H98V21.0002ZM98 10.0002L98.0002 0.000244141H98V10.0002ZM54 21.0002V11.0002H53.9998L54 21.0002ZM54 10.0002V0.000244141H53.9998L54 10.0002ZM177 21.0002L177 31.0002H177L177 21.0002ZM177 10.0002L177 20.0002H177L177 10.0002ZM165 21L165 11H165V21ZM165 10L165 0H165V10ZM132 21V11H132L132 21ZM132 10V0H132L132 10ZM44 21.0005L43.9996 31.0005H44.0002L44 21.0005ZM44 10.0005L43.9996 20.0005H44.0002L44 10.0005ZM32 21L32.0004 11H32V21ZM32 10L32.0004 0H31.9998L32 10ZM21 10.0002L20.9998 0.000244141L11 0.000466347V10.0002H21ZM188 99V89H188L188 99ZM199 110V120H209V110H199ZM188 110V100H188L188 110ZM110 110L110 120H110V110ZM110 99.0005L110 109H110V99.0005ZM121 99.0005V109H121L121 99.0005ZM121 110V120H121L121 110ZM98 110L98.0002 100H98V110ZM98 99.0002L98.0002 89.0002H98V99.0002ZM54 110V100H53.9998L54 110ZM54 99.0002V89.0002H53.9998L54 99.0002ZM177 110L177 120H177L177 110ZM177 99.0002L177 109H177L177 99.0002ZM165 110L165 100H165V110ZM165 99L165 89H165V99ZM132 110V100H132L132 110ZM132 99V89H132L132 99ZM44 110L43.9996 120H44.0002L44 110ZM44 99.0005L43.9996 109H44.0002L44 99.0005ZM32 110L32.0004 100H31.9998L32 110ZM32 99L32.0004 89H32V99ZM21 110H11V120L21.0002 120L21 110ZM35.249 36.7857V26.7857H25.249V36.7857H35.249ZM64.1776 36.7857H74.1776V26.7857H64.1776V36.7857ZM64.1776 41.6071H54.1776V51.6071H64.1776V41.6071ZM59.3562 46.4286H69.3562V36.4286H59.3562V46.4286ZM44.8919 46.4286V36.4286H34.8919V46.4286H44.8919ZM68.999 41.6071H78.999V31.6071H68.999V41.6071ZM59.3562 60.8929V70.8929H69.3562V60.8929H59.3562ZM64.1776 65.7143V55.7143H54.1776V65.7143H64.1776ZM64.1776 70.5357V80.5357H74.1776V70.5357H64.1776ZM44.8919 70.5357V60.5357H34.8919V70.5357H44.8919ZM44.8919 60.8929H34.8919V70.8929H44.8919V60.8929ZM44.8919 85V95H54.8919V85H44.8919ZM35.249 85H25.249V95H35.249V85ZM68.999 65.7143V75.7143H78.999V65.7143H68.999ZM73.833 36.7857V26.7857H63.833V36.7857H73.833ZM83.4759 36.7857H93.4759V26.7857H83.4759V36.7857ZM83.4759 75.3571H73.4759V85.3571H83.4759V75.3571ZM73.833 85H63.833V95H73.833V85ZM97.9401 85V95H107.94V85H97.9401ZM97.9401 75.3571H107.94V65.3571H97.9401V75.3571ZM112.392 41.6071V31.6071H102.392V41.6071H112.392ZM117.213 41.6071V51.6071H127.213V41.6071H117.213ZM112.392 46.4286V56.4286H122.392V46.4286H112.392ZM122.035 41.6071H112.035V51.6071H122.035V41.6071ZM117.213 36.7857V26.7857H107.213V36.7857H117.213ZM122.035 36.7857H132.035V26.7857H122.035V36.7857ZM126.856 41.6071H136.856V31.6071H126.856V41.6071ZM126.856 46.4286H116.856V56.4286H126.856V46.4286ZM122.035 51.25H132.035V41.25H122.035V51.25ZM131.678 46.4286H141.678V36.4286H131.678V46.4286ZM131.678 51.25H121.678V61.25H131.678V51.25ZM117.213 51.25V41.25H107.213V51.25H117.213ZM107.57 46.4286V36.4286H97.5704V46.4286H107.57ZM107.57 51.25V61.25H117.57V51.25H107.57ZM112.392 56.0714V46.0714H102.392V56.0714H112.392ZM102.749 51.25V41.25H92.749V51.25H102.749ZM117.213 56.0714V66.0714H127.213V56.0714H117.213ZM112.392 65.7143H102.392V75.7143H112.392V65.7143ZM126.856 65.7143V75.7143H136.856V65.7143H126.856ZM136.499 51.25H146.499V41.25H136.499V51.25ZM126.856 56.0714H136.856V46.0714H126.856V56.0714ZM122.035 56.0714H112.035V66.0714H122.035V56.0714ZM126.856 75.3571H136.856V65.3571H126.856V75.3571ZM136.499 85V95H146.499V85H136.499ZM126.856 85H116.856V95H126.856V85ZM112.392 75.3571V65.3571H102.392V75.3571H112.392ZM112.392 85V95H122.392V85H112.392ZM102.749 85H92.749V95H102.749V85ZM141.333 36.7857V26.7857H131.333V36.7857H141.333ZM150.976 36.7857H160.976V26.7857H150.976V36.7857ZM146.154 60.8929H156.154V50.8929H146.154V60.8929ZM141.333 60.8929H131.333V70.8929H141.333V60.8929ZM150.976 56.0714H140.976V66.0714H150.976V56.0714ZM150.976 65.7143H160.976V55.7143H150.976V65.7143ZM146.154 65.7143H136.154V75.7143H146.154V65.7143ZM155.797 60.8929H145.797V70.8929H155.797V60.8929ZM155.797 56.0714H165.797V46.0714H155.797V56.0714ZM155.797 70.5357H165.797V60.5357H155.797V70.5357ZM150.976 70.5357H140.976V80.5357H150.976V70.5357ZM165.44 60.8929V70.8929H175.44V60.8929H165.44ZM165.44 70.5357V60.5357H155.44V70.5357H165.44ZM170.262 65.7143V55.7143H160.262V65.7143H170.262ZM170.262 70.5357V80.5357H180.262V70.5357H170.262ZM165.44 56.0714V46.0714H155.44V56.0714H165.44ZM170.262 56.0714V66.0714H180.262V56.0714H170.262ZM175.083 60.8929V50.8929H165.083V60.8929H175.083ZM175.083 65.7143V75.7143H185.083V65.7143H175.083ZM170.262 36.7857V26.7857H160.262V36.7857H170.262ZM179.904 36.7857H189.904V26.7857H179.904V36.7857ZM179.904 60.8929V70.8929H189.904V60.8929H179.904ZM155.797 85H145.797V95H155.797V85ZM165.44 85V95H175.44V85H165.44ZM21 87H11V99H21H31V87H21ZM21 99V89H10V99V109H21V99ZM10 99H20V87H10H0V99H10ZM21 77H11V87H21H31V77H21ZM10 87H20V77H10H0V87H10ZM21 66H11V77H21H31V66H21ZM10 77H20V66H10H0V77H10ZM21 54H11V66H21H31V54H21ZM10 66H20V54H10H0V66H10ZM21 43H11V54H21H31V43H21ZM10 54H20V43H10H0V54H10ZM21 33H11V43H21H31V33H21ZM10 43H20V33H10H0V43H10ZM10 21V31H21V21V11H10V21ZM21 21H11V33H21H31V21H21ZM10 33H20V21H10H0V33H10ZM21 21V31H199V21V11H21V21ZM199 21H189V99H199H209V21H199ZM199 99V89H21V99V109H199V99ZM21 99H31V21H21H11V99H21ZM210 87H200V99H210H220V87H210ZM210 99V89H199V99V109H210V99ZM199 99H209V87H199H189V99H199ZM210 77H200V87H210H220V77H210ZM199 87H209V77H199H189V87H199ZM210 66H200V77H210H220V66H210ZM199 77H209V66H199H189V77H199ZM210 54H200V66H210H220V54H210ZM199 66H209V54H199H189V66H199ZM210 43H200V54H210H220V43H210ZM199 54H209V43H199H189V54H199ZM210 33H200V43H210H220V33H210ZM199 43H209V33H199H189V43H199ZM199 21V31H210V21V11H199V21ZM210 21H200V33H210H220V21H210ZM199 33H209V21H199H189V33H199ZM188 10V20H199V10V0H188V10ZM199 10H189V21H199H209V10H199ZM199 21V11H188V21V31H199V21ZM110 10.0005V20.0005H121V10.0005V0.000488281H110V10.0005ZM121 21.0005V11.0005H110V21.0005V31.0005H121V21.0005ZM98 10.0002L97.9998 20.0002L110 20.0005L110 10.0005L110 0.000488281L98.0002 0.000244141L98 10.0002ZM110 21.0005L110 11.0005L98.0002 11.0002L98 21.0002L97.9998 31.0002L110 31.0005L110 21.0005ZM88.001 10.0002V20.0002H98V10.0002V0.000244141H88.001V10.0002ZM98 21.0002V11.0002H88.001V21.0002V31.0002H98V21.0002ZM77 10.0002V20.0002H88.001V10.0002V0.000244141H77V10.0002ZM88.001 21.0002V11.0002H77V21.0002V31.0002H88.001V21.0002ZM65 10.0002V20.0002H77V10.0002V0.000244141H65V10.0002ZM77 21.0002V11.0002H65V21.0002V31.0002H77V21.0002ZM54 10.0002V20.0002H65V10.0002V0.000244141H54V10.0002ZM65 21.0002V11.0002H54V21.0002V31.0002H65V21.0002ZM177 10.0002L177 20.0002L188 20L188 10L188 0L177 0.000244141L177 10.0002ZM188 21L188 11L177 11.0002L177 21.0002L177 31.0002L188 31L188 21ZM165 10L165 20L177 20.0002L177 10.0002L177 0.000244141L165 0L165 10ZM177 21.0002L177 11.0002L165 11L165 21L165 31L177 31.0002L177 21.0002ZM155.001 10V20H165V10V0H155.001V10ZM165 21V11H155.001V21V31H165V21ZM144 10V20H155.001V10V0H144V10ZM155.001 21V11H144V21V31H155.001V21ZM132 10V20H144V10V0H132V10ZM144 21V11H132V21V31H144V21ZM121 10.0005L121 20.0005L132 20L132 10L132 0L121 0.000488281L121 10.0005ZM132 21L132 11L121 11.0005L121 21.0005L121 31.0005L132 31L132 21ZM44 10.0005L44.0002 20.0005L54.0002 20.0002L54 10.0002L53.9998 0.000244141L43.9998 0.000488281L44 10.0005ZM54 21.0002L53.9998 11.0002L43.9998 11.0005L44 21.0005L44.0002 31.0005L54.0002 31.0002L54 21.0002ZM32 10L31.9996 20L43.9996 20.0005L44 10.0005L44.0004 0.000488281L32.0004 0L32 10ZM44 21.0005L44.0004 11.0005L32.0004 11L32 21L31.9996 31L43.9996 31.0005L44 21.0005ZM21 21H31V10.0002H21H11V21H21ZM21 10.0002L21.0002 20.0002L32.0002 20L32 10L31.9998 0L20.9998 0.000244141L21 10.0002ZM32 21V11H21V21V31H32V21ZM188 99V109H199V99V89H188V99ZM199 99H189V110H199H209V99H199ZM199 110V100H188V110V120H199V110ZM110 99.0005V109H121V99.0005V89.0005H110V99.0005ZM121 110V100H110V110V120H121V110ZM98 99.0002L97.9998 109L110 109L110 99.0005L110 89.0005L98.0002 89.0002L98 99.0002ZM110 110L110 100L98.0002 100L98 110L97.9998 120L110 120L110 110ZM88.001 99.0002V109H98V99.0002V89.0002H88.001V99.0002ZM98 110V100H88.001V110V120H98V110ZM77 99.0002V109H88.001V99.0002V89.0002H77V99.0002ZM88.001 110V100H77V110V120H88.001V110ZM65 99.0002V109H77V99.0002V89.0002H65V99.0002ZM77 110V100H65V110V120H77V110ZM54 99.0002V109H65V99.0002V89.0002H54V99.0002ZM65 110V100H54V110V120H65V110ZM177 99.0002L177 109L188 109L188 99L188 89L177 89.0002L177 99.0002ZM188 110L188 100L177 100L177 110L177 120L188 120L188 110ZM165 99L165 109L177 109L177 99.0002L177 89.0002L165 89L165 99ZM177 110L177 100L165 100L165 110L165 120L177 120L177 110ZM155.001 99V109H165V99V89H155.001V99ZM165 110V100H155.001V110V120H165V110ZM144 99V109H155.001V99V89H144V99ZM155.001 110V100H144V110V120H155.001V110ZM132 99V109H144V99V89H132V99ZM144 110V100H132V110V120H144V110ZM121 99.0005L121 109L132 109L132 99L132 89L121 89.0005L121 99.0005ZM132 110L132 100L121 100L121 110L121 120L132 120L132 110ZM44 99.0005L44.0002 109L54.0002 109L54 99.0002L53.9998 89.0002L43.9998 89.0005L44 99.0005ZM54 110L53.9998 100L43.9998 100L44 110L44.0002 120L54.0002 120L54 110ZM32 99L31.9996 109L43.9996 109L44 99.0005L44.0004 89.0005L32.0004 89L32 99ZM44 110L44.0004 100L32.0004 100L32 110L31.9996 120L43.9996 120L44 110ZM21 110H31V99H21H11V110H21ZM21 99V109H32V99V89H21V99ZM32 110L31.9998 100L20.9998 100L21 110L21.0002 120L32.0002 120L32 110ZM35.249 36.7857V46.7857H40.0705V36.7857V26.7857H35.249V36.7857ZM35.249 41.6071H45.249V36.7857H35.249H25.249V41.6071H35.249ZM40.0705 36.7857V46.7857H44.8919V36.7857V26.7857H40.0705V36.7857ZM44.8919 36.7857V46.7857H49.7133V36.7857V26.7857H44.8919V36.7857ZM49.7133 36.7857V46.7857H54.5347V36.7857V26.7857H49.7133V36.7857ZM54.5347 36.7857V46.7857H59.3562V36.7857V26.7857H54.5347V36.7857ZM59.3562 36.7857V46.7857H64.1776V36.7857V26.7857H59.3562V36.7857ZM64.1776 36.7857H54.1776V41.6071H64.1776H74.1776V36.7857H64.1776ZM59.3562 46.4286V36.4286H54.5347V46.4286V56.4286H59.3562V46.4286ZM54.5347 46.4286V36.4286H49.7133V46.4286V56.4286H54.5347V46.4286ZM49.7133 46.4286V36.4286H44.8919V46.4286V56.4286H49.7133V46.4286ZM35.249 46.4286H45.249V41.6071H35.249H25.249V46.4286H35.249ZM64.1776 41.6071V51.6071H68.999V41.6071V31.6071H64.1776V41.6071ZM68.999 41.6071H58.999V46.4286H68.999H78.999V41.6071H68.999ZM59.3562 51.25H69.3562V46.4286H59.3562H49.3562V51.25H59.3562ZM68.999 46.4286H58.999V51.25H68.999H78.999V46.4286H68.999ZM68.999 51.25H58.999V56.0714H68.999H78.999V51.25H68.999ZM68.999 56.0714H58.999V60.8929H68.999H78.999V56.0714H68.999ZM59.3562 60.8929H69.3562V56.0714H59.3562H49.3562V60.8929H59.3562ZM59.3562 56.0714H69.3562V51.25H59.3562H49.3562V56.0714H59.3562ZM64.1776 65.7143H54.1776V70.5357H64.1776H74.1776V65.7143H64.1776ZM64.1776 70.5357V60.5357H59.3562V70.5357V80.5357H64.1776V70.5357ZM59.3562 70.5357V60.5357H54.5347V70.5357V80.5357H59.3562V70.5357ZM54.5347 60.8929V70.8929H59.3562V60.8929V50.8929H54.5347V60.8929ZM49.7133 60.8929V70.8929H54.5347V60.8929V50.8929H49.7133V60.8929ZM54.5347 70.5357V60.5357H49.7133V70.5357V80.5357H54.5347V70.5357ZM49.7133 70.5357V60.5357H44.8919V70.5357V80.5357H49.7133V70.5357ZM44.8919 60.8929V70.8929H49.7133V60.8929V50.8929H44.8919V60.8929ZM35.249 65.7143H45.249V60.8929H35.249H25.249V65.7143H35.249ZM35.249 70.5357H45.249V65.7143H35.249H25.249V70.5357H35.249ZM35.249 51.25H45.249V46.4286H35.249H25.249V51.25H35.249ZM44.8919 46.4286H34.8919V51.25H44.8919H54.8919V46.4286H44.8919ZM44.8919 51.25H34.8919V56.0714H44.8919H54.8919V51.25H44.8919ZM44.8919 56.0714H34.8919V60.8929H44.8919H54.8919V56.0714H44.8919ZM35.249 56.0714H45.249V51.25H35.249H25.249V56.0714H35.249ZM35.249 60.8929H45.249V56.0714H35.249H25.249V60.8929H35.249ZM35.249 75.3571H45.249V70.5357H35.249H25.249V75.3571H35.249ZM44.8919 70.5357H34.8919V75.3571H44.8919H54.8919V70.5357H44.8919ZM44.8919 75.3571H34.8919V80.1786H44.8919H54.8919V75.3571H44.8919ZM44.8919 80.1786H34.8919V85H44.8919H54.8919V80.1786H44.8919ZM44.8919 85V75H40.0705V85V95H44.8919V85ZM40.0705 85V75H35.249V85V95H40.0705V85ZM35.249 85H45.249V80.1786H35.249H25.249V85H35.249ZM35.249 80.1786H45.249V75.3571H35.249H25.249V80.1786H35.249ZM68.999 60.8929H58.999V65.7143H68.999H78.999V60.8929H68.999ZM68.999 65.7143V55.7143H64.1776V65.7143V75.7143H68.999V65.7143ZM73.833 36.7857V46.7857H78.6544V36.7857V26.7857H73.833V36.7857ZM73.833 41.6071H83.833V36.7857H73.833H63.833V41.6071H73.833ZM78.6544 36.7857V46.7857H83.4759V36.7857V26.7857H78.6544V36.7857ZM83.4759 36.7857H73.4759V41.6071H83.4759H93.4759V36.7857H83.4759ZM83.4759 41.6071H73.4759V46.4286H83.4759H93.4759V41.6071H83.4759ZM83.4759 46.4286H73.4759V51.25H83.4759H93.4759V46.4286H83.4759ZM83.4759 51.25H73.4759V56.0714H83.4759H93.4759V51.25H83.4759ZM73.833 56.0714H83.833V51.25H73.833H63.833V56.0714H73.833ZM73.833 51.25H83.833V46.4286H73.833H63.833V51.25H73.833ZM73.833 46.4286H83.833V41.6071H73.833H63.833V46.4286H73.833ZM73.833 60.8929H83.833V56.0714H73.833H63.833V60.8929H73.833ZM73.833 65.7143H83.833V60.8929H73.833H63.833V65.7143H73.833ZM73.833 70.5357H83.833V65.7143H73.833H63.833V70.5357H73.833ZM83.4759 60.8929H73.4759V65.7143H83.4759H93.4759V60.8929H83.4759ZM83.4759 56.0714H73.4759V60.8929H83.4759H93.4759V56.0714H83.4759ZM83.4759 65.7143H73.4759V70.5357H83.4759H93.4759V65.7143H83.4759ZM83.4759 70.5357H73.4759V75.3571H83.4759H93.4759V70.5357H83.4759ZM73.833 80.1786H83.833V75.3571H73.833H63.833V80.1786H73.833ZM73.833 75.3571H83.833V70.5357H73.833H63.833V75.3571H73.833ZM78.6544 85V75H73.833V85V95H78.6544V85ZM73.833 85H83.833V80.1786H73.833H63.833V85H73.833ZM83.4759 85V75H78.6544V85V95H83.4759V85ZM88.2973 85V75H83.4759V85V95H88.2973V85ZM93.1187 85V75H88.2973V85V95H93.1187V85ZM97.9401 80.1786H87.9401V85H97.9401H107.94V80.1786H97.9401ZM97.9401 85V75H93.1187V85V95H97.9401V85ZM93.1187 75.3571V85.3571H97.9401V75.3571V65.3571H93.1187V75.3571ZM97.9401 75.3571H87.9401V80.1786H97.9401H107.94V75.3571H97.9401ZM88.2973 75.3571V85.3571H93.1187V75.3571V65.3571H88.2973V75.3571ZM83.4759 75.3571V85.3571H88.2973V75.3571V65.3571H83.4759V75.3571ZM112.392 41.6071V51.6071H117.213V41.6071V31.6071H112.392V41.6071ZM112.392 46.4286H122.392V41.6071H112.392H102.392V46.4286H112.392ZM117.213 36.7857V46.7857H122.035V36.7857V26.7857H117.213V36.7857ZM122.035 36.7857H112.035V41.6071H122.035H132.035V36.7857H122.035ZM117.213 41.6071H127.213V36.7857H117.213H107.213V41.6071H117.213ZM122.035 41.6071V51.6071H126.856V41.6071V31.6071H122.035V41.6071ZM126.856 41.6071H116.856V46.4286H126.856H136.856V41.6071H126.856ZM126.856 46.4286V56.4286H131.678V46.4286V36.4286H126.856V46.4286ZM131.678 46.4286H121.678V51.25H131.678H141.678V46.4286H131.678ZM122.035 51.25V41.25H117.213V51.25V61.25H122.035V51.25ZM107.57 46.4286V56.4286H112.392V46.4286V36.4286H107.57V46.4286ZM107.57 51.25H117.57V46.4286H107.57H97.5704V51.25H107.57ZM102.749 51.25V61.25H107.57V51.25V41.25H102.749V51.25ZM102.749 56.0714H112.749V51.25H102.749H92.749V56.0714H102.749ZM117.213 51.25H107.213V56.0714H117.213H127.213V51.25H117.213ZM117.213 56.0714V46.0714H112.392V56.0714V66.0714H117.213V56.0714ZM112.392 56.0714H102.392V60.8929H112.392H122.392V56.0714H112.392ZM112.392 60.8929H102.392V65.7143H112.392H122.392V60.8929H112.392ZM112.392 65.7143V75.7143H117.213V65.7143V55.7143H112.392V65.7143ZM117.213 65.7143V75.7143H122.035V65.7143V55.7143H117.213V65.7143ZM122.035 65.7143V75.7143H126.856V65.7143V55.7143H122.035V65.7143ZM136.499 65.7143H126.499V70.5357H136.499H146.499V65.7143H136.499ZM136.499 60.8929H126.499V65.7143H136.499H146.499V60.8929H136.499ZM136.499 56.0714H126.499V60.8929H136.499H146.499V56.0714H136.499ZM131.678 51.25V61.25H136.499V51.25V41.25H131.678V51.25ZM136.499 51.25H126.499V56.0714H136.499H146.499V51.25H136.499ZM126.856 56.0714V46.0714H122.035V56.0714V66.0714H126.856V56.0714ZM122.035 56.0714H132.035V51.25H122.035H112.035V56.0714H122.035ZM126.856 60.8929H136.856V56.0714H126.856H116.856V60.8929H126.856ZM126.856 65.7143H136.856V60.8929H126.856H116.856V65.7143H126.856ZM136.499 70.5357H126.499V75.3571H136.499H146.499V70.5357H136.499ZM136.499 75.3571H126.499V80.1786H136.499H146.499V75.3571H136.499ZM136.499 80.1786H126.499V85H136.499H146.499V80.1786H136.499ZM136.499 85V75H131.678V85V95H136.499V85ZM131.678 85V75H126.856V85V95H131.678V85ZM126.856 85H136.856V80.1786H126.856H116.856V85H126.856ZM126.856 80.1786H136.856V75.3571H126.856H116.856V80.1786H126.856ZM126.856 75.3571V65.3571H122.035V75.3571V85.3571H126.856V75.3571ZM122.035 75.3571V65.3571H117.213V75.3571V85.3571H122.035V75.3571ZM117.213 75.3571V65.3571H112.392V75.3571V85.3571H117.213V75.3571ZM112.392 75.3571H102.392V80.1786H112.392H122.392V75.3571H112.392ZM112.392 80.1786H102.392V85H112.392H122.392V80.1786H112.392ZM112.392 85V75H107.57V85V95H112.392V85ZM107.57 85V75H102.749V85V95H107.57V85ZM102.749 85H112.749V80.1786H102.749H92.749V85H102.749ZM102.749 80.1786H112.749V75.3571H102.749H92.749V80.1786H102.749ZM102.749 75.3571H112.749V70.5357H102.749H92.749V75.3571H102.749ZM102.749 70.5357H112.749V65.7143H102.749H92.749V70.5357H102.749ZM102.749 65.7143H112.749V60.8929H102.749H92.749V65.7143H102.749ZM102.749 60.8929H112.749V56.0714H102.749H92.749V60.8929H102.749ZM141.333 36.7857V46.7857H146.154V36.7857V26.7857H141.333V36.7857ZM141.333 41.6071H151.333V36.7857H141.333H131.333V41.6071H141.333ZM146.154 36.7857V46.7857H150.976V36.7857V26.7857H146.154V36.7857ZM150.976 36.7857H140.976V41.6071H150.976H160.976V36.7857H150.976ZM150.976 41.6071H140.976V46.4286H150.976H160.976V41.6071H150.976ZM150.976 46.4286H140.976V51.25H150.976H160.976V46.4286H150.976ZM141.333 51.25H151.333V46.4286H141.333H131.333V51.25H141.333ZM141.333 46.4286H151.333V41.6071H141.333H131.333V46.4286H141.333ZM141.333 56.0714H151.333V51.25H141.333H131.333V56.0714H141.333ZM146.154 60.8929V50.8929H141.333V60.8929V70.8929H146.154V60.8929ZM141.333 60.8929H151.333V56.0714H141.333H131.333V60.8929H141.333ZM150.976 51.25H140.976V56.0714H150.976H160.976V51.25H150.976ZM150.976 65.7143V55.7143H146.154V65.7143V75.7143H150.976V65.7143ZM146.154 65.7143H156.154V60.8929H146.154H136.154V65.7143H146.154ZM150.976 56.0714V66.0714H155.797V56.0714V46.0714H150.976V56.0714ZM155.797 56.0714H145.797V60.8929H155.797H165.797V56.0714H155.797ZM155.797 70.5357V60.5357H150.976V70.5357V80.5357H155.797V70.5357ZM150.976 70.5357H160.976V65.7143H150.976H140.976V70.5357H150.976ZM155.797 60.8929V70.8929H160.619V60.8929V50.8929H155.797V60.8929ZM160.619 60.8929V70.8929H165.44V60.8929V50.8929H160.619V60.8929ZM170.262 65.7143H160.262V70.5357H170.262H180.262V65.7143H170.262ZM170.262 70.5357V60.5357H165.44V70.5357V80.5357H170.262V70.5357ZM165.44 56.0714V66.0714H170.262V56.0714V46.0714H165.44V56.0714ZM165.44 60.8929H175.44V56.0714H165.44H155.44V60.8929H165.44ZM175.083 60.8929H165.083V65.7143H175.083H185.083V60.8929H175.083ZM175.083 65.7143V55.7143H170.262V65.7143V75.7143H175.083V65.7143ZM170.262 56.0714H180.262V51.25H170.262H160.262V56.0714H170.262ZM170.262 51.25H180.262V46.4286H170.262H160.262V51.25H170.262ZM170.262 46.4286H180.262V41.6071H170.262H160.262V46.4286H170.262ZM170.262 36.7857V46.7857H175.083V36.7857V26.7857H170.262V36.7857ZM170.262 41.6071H180.262V36.7857H170.262H160.262V41.6071H170.262ZM175.083 36.7857V46.7857H179.904V36.7857V26.7857H175.083V36.7857ZM179.904 36.7857H169.904V41.6071H179.904H189.904V36.7857H179.904ZM179.904 41.6071H169.904V46.4286H179.904H189.904V41.6071H179.904ZM179.904 46.4286H169.904V51.25H179.904H189.904V46.4286H179.904ZM179.904 51.25H169.904V56.0714H179.904H189.904V51.25H179.904ZM179.904 56.0714H169.904V60.8929H179.904H189.904V56.0714H179.904ZM179.904 60.8929V50.8929H175.083V60.8929V70.8929H179.904V60.8929ZM155.797 75.3571H165.797V70.5357H155.797H145.797V75.3571H155.797ZM155.797 80.1786H165.797V75.3571H155.797H145.797V80.1786H155.797ZM160.619 85V75H155.797V85V95H160.619V85ZM155.797 85H165.797V80.1786H155.797H145.797V85H155.797ZM165.44 80.1786H155.44V85H165.44H175.44V80.1786H165.44ZM165.44 85V75H160.619V85V95H165.44V85ZM165.44 75.3571H155.44V80.1786H165.44H175.44V75.3571H165.44ZM165.44 70.5357H155.44V75.3571H165.44H175.44V70.5357H165.44Z" fill="#111110" mask="url(#path-1-outside-1_454_656)"/>
</svg>
