<svg width="940" height="554" viewBox="0 0 940 554" fill="none" xmlns="http://www.w3.org/2000/svg">
<path d="M665.032 33.0106L875.008 32.9783C875.485 69.4851 874.994 106.564 875.123 143.141L855.065 143.176L855.083 232.886C861.638 233.01 868.431 232.939 875.008 232.955C875.526 272.844 874.843 313.112 875.141 353.061C848.855 353.051 821.752 352.742 795.535 353.195V398.173L795.548 521.1C778.571 520.765 760.546 521.063 743.509 521.063H642.225H338.23L230.889 521.072C212.867 521.081 190.921 521.66 173.287 520.925C163.834 513.604 150.526 501.06 141.085 492.789C140.738 486.74 140.851 480.006 140.94 473.92C141.484 436.7 140.179 399.106 141.034 361.926C143.645 359.149 147.897 355.71 150.892 353.151C133.198 352.578 112.937 353.057 95.0038 353.034L95.0368 343.235L84.9741 343.033L85.0122 333.213L74.9889 333.097C74.909 329.758 74.9893 326.519 75.0582 323.182L65.0202 323.081L65.0271 62.9569L74.9402 62.9642L74.9879 52.9683L84.9534 52.9812L84.9787 43.0078L94.9808 43.0239L95.0116 33.0081L255.065 32.9751L255.116 42.9315L265.011 42.9564L265.106 52.8839L275.001 52.9325L275.053 62.8958L285.004 62.9633L285.019 33.0092L385.052 32.98L385.088 42.9353L395.001 43.0285C394.92 39.8171 395.013 36.2523 395.033 33.011L644.992 32.9784L645.075 42.922L655.007 42.9655L655.049 52.8733L665.013 52.9876L665.032 33.0106Z" fill="#121212"/>
<path d="M494.909 53.0064L574.928 52.9495C591.186 52.95 608.728 52.609 624.893 52.9835C625.302 56.1124 625.15 59.7834 625.123 62.9734L635.005 62.9596L635.042 72.9872L644.969 72.989L644.992 83.023L654.989 83.0276L654.998 93.0179L665.027 93.0253L665.032 156.933L665.022 177.037L654.975 177.074L654.984 186.963L645.282 186.978C645.213 188.811 645.194 191.207 645.038 192.986L654.989 193.001L655.003 202.967L665.027 202.961V273.012V302.97L654.975 302.989L654.98 313.015L644.951 313.032L644.946 323.044L634.986 323.071C635.023 326.353 634.977 329.717 634.968 333.007L495.005 333.056C493.964 271.377 494.698 207.946 494.707 146.167L494.716 83.5995C494.716 76.218 494.193 59.7522 494.909 53.0064Z" fill="#81BB41"/>
<path d="M495.005 333.056C493.964 271.377 494.698 207.946 494.707 146.167L494.716 83.5994C494.716 76.2179 494.193 59.7521 494.909 53.0063C495.363 61.3604 495.12 71.5614 495.12 80.0812L495.111 125.993L495.102 243.19C495.102 262.832 494.79 283.458 495.125 303.006L504.819 302.977L635.028 302.967L635.037 293.025L644.979 292.967L644.983 283.082L654.994 283.02L654.989 273.062L665.027 273.012V302.97L654.975 302.989L654.98 313.015L644.951 313.032L644.946 323.044L634.986 323.071C635.023 326.353 634.977 329.717 634.968 333.007L495.005 333.056Z" fill="#336C25"/>
<path d="M494.909 53.0064L574.928 52.9495C591.186 52.95 608.728 52.609 624.893 52.9835C624.604 56.3855 624.659 59.5177 624.678 62.9266L504.897 62.9716L504.819 302.977L495.125 303.006C494.79 283.458 495.102 262.832 495.102 243.19L495.111 125.993L495.12 80.0813C495.12 71.5615 495.363 61.3605 494.909 53.0064Z" fill="#B2DA6C"/>
<path d="M665.032 156.933L665.023 177.037L654.975 177.074L654.985 186.963L645.282 186.978C645.213 188.811 645.194 191.207 645.038 192.986C644.644 190.646 644.979 170.574 644.979 167.054L654.994 167.026L654.989 157.004C658.34 156.998 661.686 156.975 665.032 156.933Z" fill="#336C25"/>
<path d="M554.976 203.013L615.03 202.947L615.002 213.011L625.031 212.969C624.944 220.8 625.674 235.807 625.004 242.88C622.534 242.867 617.187 242.716 615.007 243.105L615.011 252.914C601.444 252.551 587.124 253.156 573.496 252.901C568.227 252.803 560.484 253.308 555.532 252.709C554.733 251.576 555.018 251.019 554.99 249.392C554.614 244.756 554.816 236.011 554.857 231.222C554.963 221.82 555.004 212.417 554.976 203.013Z" fill="#121212"/>
<path d="M554.976 203.013L615.03 202.947L615.002 213.011L625.031 212.969C624.944 220.8 625.674 235.807 625.004 242.88C624.751 239.435 624.747 236.497 624.751 233.045L615.016 233.075L615.034 223.028L555.174 223.034C555.187 227.977 555.564 244.992 554.99 249.392C554.614 244.756 554.816 236.011 554.857 231.222C554.963 221.82 555.004 212.417 554.976 203.013Z" fill="#336C25"/>
<path d="M554.976 103.049L615.025 102.949L615.007 113.008L625.027 112.944C624.967 120.716 625.655 135.837 625.004 142.896C622.328 142.874 617.444 142.706 615.002 143.107L615.011 152.905C601.632 152.427 586.839 153.208 573.35 152.891C568.099 152.767 560.443 153.29 555.509 152.68C554.738 151.507 555.013 150.953 554.99 149.334C554.614 144.698 554.816 135.946 554.857 131.159C554.963 121.79 555.004 112.42 554.976 103.049Z" fill="#121212"/>
<path d="M554.976 103.049L615.025 102.949L615.007 113.008L625.027 112.944C624.967 120.716 625.655 135.837 625.004 142.896C624.774 139.432 624.742 136.519 624.751 133.049L615.016 133.07L615.03 122.996L555.178 123.007C555.187 127.971 555.555 145.016 554.99 149.334C554.614 144.698 554.816 135.946 554.857 131.159C554.963 121.79 555.004 112.42 554.976 103.049Z" fill="#336C25"/>
<path d="M554.949 253.321L615.034 253.273L615.016 262.981L554.967 263.023L554.949 253.321Z" fill="#B2DA6C"/>
<path d="M554.94 153.357L615.03 153.338L615.021 162.948L554.967 163.003L554.94 153.357Z" fill="#B2DA6C"/>
<path d="M615.011 252.914L615.007 243.105C618.5 243.357 621.561 243.35 625.063 243.344L625.036 252.934C622.484 252.942 617.357 253.109 615.011 252.914Z" fill="#B2DA6C"/>
<path d="M615.002 143.107C618.495 143.319 621.57 143.333 625.063 143.327L625.036 152.911C622.736 152.934 617.054 153.125 615.012 152.905L615.002 143.107Z" fill="#B2DA6C"/>
<path d="M684.961 52.9665L796.971 52.9417C815.514 52.9426 836.582 52.4322 854.79 52.9894C855.304 56 855.092 64.9856 855.083 68.4454L855.014 98.4519C855.249 106.404 855.07 115.027 855.042 123.029L755.029 123.02V152.944L803.838 152.871C806.927 152.867 822.693 152.663 824.997 153.203C825.557 157.737 825.213 169.209 825.203 174.472L825.011 223.056L755.029 223.047V252.947L827.287 252.897C831.134 252.895 852.655 252.69 854.79 253.214C855.299 256.045 855.092 265.084 855.088 268.333L855.014 298.59C855.639 307.189 855.056 323.917 855.042 333.084C834.388 332.648 812.15 333.029 791.349 333.027L684.942 333.104L684.777 141.265L684.782 82.3969C684.782 74.8323 684.281 60.0216 684.961 52.9665Z" fill="#32ACDD"/>
<path d="M684.942 333.104L684.777 141.265L684.782 82.3969C684.782 74.8323 684.281 60.0217 684.961 52.9666C685.534 60.136 685.213 71.5038 685.213 79.0298L685.195 125.863V242.747C685.195 262.458 684.841 283.45 685.232 303.061L694.985 303.017L814.523 303.002L840.974 303.039C843.32 303.045 852.219 303.241 854.115 302.779C855.148 301.352 854.858 300.601 855.014 298.59C855.639 307.189 855.056 323.917 855.042 333.084C834.388 332.648 812.15 333.029 791.349 333.027L684.942 333.104Z" fill="#156A98"/>
<path d="M684.961 52.9665L796.971 52.9417C815.514 52.9426 836.582 52.4322 854.79 52.9894C854.363 56.2395 854.5 59.7614 854.523 63.0565C801.557 62.8371 747.768 63.5568 694.902 62.9321L694.985 303.017L685.232 303.061C684.841 283.45 685.195 262.458 685.195 242.747V125.863L685.213 79.0297C685.213 71.5037 685.534 60.1359 684.961 52.9665Z" fill="#43BEEA"/>
<path d="M755.016 103.063L820.549 103.058C830.785 103.06 844.215 103.494 854.22 102.992C855.06 101.724 854.932 100.057 855.014 98.4519C855.249 106.404 855.07 115.027 855.042 123.029L755.029 123.02L755.016 103.063Z" fill="#156A98"/>
<path d="M824.997 153.203C825.557 157.737 825.213 169.209 825.203 174.472L825.011 223.056L755.029 223.047L755.011 203.01L824.731 203.084L824.754 163.006C824.735 159.678 824.662 156.52 824.997 153.203Z" fill="#156A98"/>
<path d="M854.79 253.214C854.399 255.259 854.523 260.666 854.523 263.011L754.979 263.026L755.02 253.504L822.371 253.456C830.528 253.46 847.391 254.027 854.79 253.214Z" fill="#43BEEA"/>
<path d="M824.997 153.203C824.662 156.52 824.735 159.678 824.754 163.006C801.708 163.266 778.079 162.988 754.988 163.012L755.02 153.474L801.68 153.473C807.95 153.474 819.255 153.818 824.997 153.203Z" fill="#43BEEA"/>
<path d="M115.078 53.0097L191.794 52.9473C205.541 52.9486 221.428 52.5571 235.029 53.0037L235.001 62.9385L245.08 62.9569L245.058 72.995L255.095 72.9826L255.071 83.028L265.075 83.0175L265.031 93.0276L275.025 93.0051L274.99 143.073L275.005 173.021L224.977 173.039L224.978 142.71L224.965 133.042L205.044 133.057C205.004 129.742 205.05 126.337 205.055 123.012L155.005 123.012L155.077 133.041L145.029 133.024L145.041 243.007L155.088 242.967L155.068 252.939L205.055 252.938L205.004 243.123C207.824 242.588 221.485 242.927 224.977 242.971L224.974 219.163L224.943 212.995C241.541 212.989 258.441 212.809 275.012 212.99L274.995 223.046L274.994 263.014C274.988 272.947 274.881 283.054 274.997 292.972L264.942 292.978L265.01 302.971L254.972 302.978L255.08 313.017L245.005 313.021L245.071 323.044L234.99 323.05L235.024 333.021C195.272 333.023 154.707 332.588 115.027 333.075C115.01 329.827 114.928 326.27 115.037 323.052L105.05 323.068L105.054 313.021L95.0153 313.035L95.0185 302.982L84.9718 303.003L84.9764 273L84.9474 83.0349L95.0203 83.0478L94.9877 72.9954L104.83 72.9422L104.985 72.709L105.017 63.1061C107.313 62.7609 112.437 62.9234 114.99 62.9454C114.908 59.6155 114.74 56.3231 115.078 53.0097Z" fill="#EA422F"/>
<path d="M264.977 263.005L274.994 263.014C274.988 272.947 274.881 283.054 274.997 292.971L264.942 292.978L265.01 302.97L254.972 302.978L255.08 313.016L245.005 313.021L245.071 323.044L234.99 323.05L235.024 333.021C195.272 333.023 154.707 332.588 115.027 333.075C115.01 329.827 114.928 326.27 115.037 323.052L105.05 323.068L105.054 313.021L95.0153 313.035L95.0185 302.982L84.9718 303.003L84.9764 272.999L94.9666 273.045L94.996 283.051L105.059 283.041L105.017 293.014L115.049 292.981L114.981 302.99L235.012 302.968L234.996 293.002L245.054 292.963L245.031 283.059L255.052 283.02L255.021 273.05L265.006 273.035L264.977 263.005Z" fill="#8D0D0B"/>
<path d="M94.9877 72.9954L104.83 72.9421C105.224 75.9182 105.049 79.9459 105.014 83.0229L95.0148 83.0693L94.9873 210.044C94.9873 229.737 95.6354 253.821 94.9666 273.045L84.9764 272.999L84.9474 83.0349L95.0203 83.0477L94.9877 72.9954Z" fill="#FB6F62"/>
<path d="M155.031 103.015L205.06 103.002L205.009 112.996L224.967 112.974L224.965 133.042L205.044 133.057C205.004 129.742 205.05 126.337 205.055 123.012L155.005 123.012L155.077 133.041L145.029 133.024L145.013 112.986L155.057 112.962L155.031 103.015Z" fill="#8D0D0B"/>
<path d="M224.978 142.71C227.742 143.684 269.437 143.04 274.99 143.073L275.005 173.02L224.977 173.039L224.978 142.71Z" fill="#8D0D0B"/>
<path d="M115.078 53.0097L191.794 52.9473C205.541 52.9486 221.428 52.5571 235.029 53.0037L235.001 62.9385C195.316 63.4549 155.077 62.7696 115.287 63.0441C115.32 59.6981 115.251 56.3516 115.078 53.0097Z" fill="#FB6F62"/>
<path d="M224.943 212.995C241.541 212.988 258.441 212.809 275.012 212.99L274.995 223.046L245.084 223.076C239.185 223.1 231.657 223.33 225.892 222.937C225.029 221.996 225.164 220.686 224.974 219.163L224.943 212.995Z" fill="#FB6F62"/>
<path d="M205.004 243.123C211.003 243.489 218.803 243.312 224.954 243.315L224.94 252.951C219.747 252.964 209.872 253.297 205.055 252.938L205.004 243.123Z" fill="#FB6F62"/>
<path d="M105.017 63.106C108.359 63.2345 111.704 63.2974 115.049 63.2946L114.993 72.9733C112.483 73.0031 107.177 73.2166 104.985 72.7089L105.017 63.106Z" fill="#FB6F62"/>
<path d="M155.039 253.289C171.235 252.921 188.829 253.035 205.056 253.262L204.988 262.964C189.447 263.503 170.86 263.012 155.07 263.021L155.039 253.289Z" fill="#FB6F62"/>
<path d="M304.948 52.984C324.477 52.6076 345.408 52.9078 365.003 52.9721L365.013 62.9858L365.019 252.945L414.93 252.928L414.921 126.783C414.92 103.87 414.685 80.4807 415.003 57.5991L414.982 52.9624C434.668 52.9514 455.455 52.5842 475.044 52.9688V62.9229L475.04 273.045L475.053 302.983L464.983 303L465.011 313.022L454.978 313.03L455.027 323.044L445.028 323.06L445.079 333.032L335.017 333.069L335.029 323.037L324.979 323.065L324.984 313.016L314.957 313.038L314.963 302.977L304.989 303.012L305.01 273.062C304.552 248.608 304.957 222.732 304.956 198.179L304.948 52.984Z" fill="#F3B329"/>
<path d="M475.04 273.045L475.053 302.982L464.983 303L465.011 313.022L454.978 313.03L455.027 323.044L445.028 323.06L445.079 333.032L335.017 333.069L335.029 323.037L324.979 323.065L324.984 313.016L314.957 313.038L314.963 302.977L304.989 303.012L305.01 273.062L314.886 273.051C315.063 275.779 314.939 280.191 314.95 283.048L324.988 283.04L324.973 293.03L335.036 292.968L335.017 302.999L445.038 302.983L445.014 293.042L454.987 292.987L454.963 283.083L464.993 283.049L464.974 273.065L475.04 273.045Z" fill="#AA5C09"/>
<path d="M304.948 52.984C324.477 52.6076 345.408 52.9078 365.003 52.9721L365.013 62.9858L314.9 62.9867L314.886 273.051L305.01 273.062C304.552 248.608 304.957 222.732 304.956 198.179L304.948 52.984Z" fill="#FCD655"/>
<path d="M414.982 52.9624C434.668 52.9514 455.455 52.5842 475.044 52.9688V62.9229C459.71 63.5105 440.74 62.9523 424.979 62.9936L424.988 252.936L415.28 252.983L415.207 119.962L415.23 80.6918C415.234 73.6009 415.488 64.4872 415.003 57.5991L414.982 52.9624Z" fill="#FCD655"/>
<path d="M364.963 253.404C381.245 252.972 398.651 253.27 414.966 253.317L414.941 262.993C398.387 262.831 381.537 263.011 364.96 263.027L364.963 253.404Z" fill="#FCD655"/>
<path d="M286.937 352.506C314.16 352.136 342.251 352.495 369.546 352.494L392.483 375.39L392.514 423.954C387.187 429.568 380.962 435.512 375.435 441.023L395.567 502.029L356.976 502.098L341.993 448.472L321.57 448.48C321.194 465.906 321.526 484.523 321.525 502.047L286.942 502.079L286.937 352.506Z" fill="#FEFEFE"/>
<path d="M321.064 385.531L357.511 385.537L357.508 419.492H321.071C320.875 408.426 321.059 396.647 321.064 385.531Z" fill="#121212"/>
<path d="M740.461 352.98L776.542 352.984L776.537 499.036C776.546 500.794 776.808 500.555 776.042 501.854C773.926 502.3 766.761 502.125 764.168 502.12L740.461 502.065L740.47 447.045L702.076 447.048L702.062 502.061L666.95 502.079V352.98L702.067 352.977L702.081 412.001L740.452 411.96L740.461 352.98Z" fill="#FEFEFE"/>
<path d="M441.493 352.966L492.545 352.974C504.015 402.364 516.94 452.715 529.025 502.047L492.49 502.074L487.731 481.787L486.019 474.535L449.056 474.53C446.669 483.706 444.334 492.895 442.051 502.093L406.989 502.07L441.493 352.966Z" fill="#FEFEFE"/>
<path d="M466.934 386.283C468.077 389.163 470.597 401.202 471.423 404.827L479.946 442.468L467.476 442.469L454.061 442.47C457.612 424.847 462.638 403.805 466.934 386.283Z" fill="#121212"/>
<path d="M558.997 352.475L624.958 352.486C630.475 357.948 642.05 368.808 646.535 374.248L646.544 397.017L610.95 397.046L610.954 384.557L575.066 384.547V409.123C582.341 410.152 621.827 417.544 625.559 419.863C633.118 424.556 639.457 431.875 646.548 437.335L646.585 481.888L628.662 499.849L626.362 502.065H560.548L540.505 482.017L540.518 460.467C551.805 460.279 563.725 460.458 575.057 460.467L575.071 471.446L610.945 471.455L610.959 447.961C594.61 445.431 576.526 442.633 560.457 438.96C558.561 438.527 543.199 426.134 540.5 424.031L540.509 370.967L558.997 352.475Z" fill="#FEFEFE"/>
<path d="M180.605 352.49L246.893 352.488C254.12 358.954 261.376 365.831 268.51 372.431L268.512 403.975L232.997 404.022L232.991 384.557L195.055 384.548L195.061 471.446L232.992 471.456L232.955 460.137L232.99 453.968L268.513 453.977L268.534 484L249.407 502.043L180.695 502.056C174.673 497.402 165.983 489.306 160.01 484.055C159.594 472.011 159.947 457.522 159.945 445.266L159.938 370.471C166.777 364.783 173.726 358.332 180.605 352.49Z" fill="#FEFEFE"/>
<path d="M50.0523 388.981C72.9111 388.55 97.1179 388.891 120.041 388.944L120.117 403.912L135.002 403.942L135.037 474.113L120.07 474.15C120.156 479.143 120.147 484.137 120.044 489.131L50.0077 489.085L50.0458 474.177L34.9727 474.076L34.9832 403.967L49.9976 403.968C49.9797 398.972 49.9981 393.977 50.0523 388.981Z" fill="#121212"/>
<path d="M69.9497 408.98L100.048 408.975L100.055 424.019L115.072 424.021L115.072 454.001L100.054 454.006L100.047 469.05L69.9625 469.069C69.9033 464.089 69.9621 458.994 69.963 454.001L55.0074 454.021L55.0019 424.023L69.9827 424.007L69.9497 408.98Z" fill="#FEFEFE"/>
<path d="M820.081 388.987C842.718 388.482 867.288 388.901 890.003 388.942L890.044 403.914L905.053 403.936L905.099 474.113L890.03 474.159C890.04 477.225 890.269 486.244 889.833 488.805L889.071 489.131L820.026 489.085C819.902 484.119 819.925 479.143 820.104 474.177L805.022 474.081L805.027 403.967L820.021 403.975C819.939 398.848 819.875 394.126 820.081 388.987Z" fill="#121212"/>
<path d="M839.96 408.979L870.069 408.975L870.087 424.019L885.004 424.021V454.002L870.078 454.007C870.115 459.021 870.097 464.038 870.014 469.05L839.96 469.064L839.969 454.002L824.946 454.02C824.813 444.113 824.933 433.951 824.937 424.024L839.964 424.008L839.96 408.979Z" fill="#FEFEFE"/>
</svg>
